<?xml version="1.0" standalone="no"?>
<!DOCTYPE svg PUBLIC "-//W3C//DTD SVG 20010904//EN"
 "http://www.w3.org/TR/2001/REC-SVG-20010904/DTD/svg10.dtd">
<svg version="1.0" xmlns="http://www.w3.org/2000/svg"
 width="440.000000pt" height="452.000000pt" viewBox="0 0 440.000000 452.000000"
 preserveAspectRatio="xMidYMid meet">
<metadata>
Created by potrace 1.10, written by Peter Selinger 2001-2011
</metadata>
<g transform="translate(0.000000,452.000000) scale(0.100000,-0.100000)"
fill="#000000" stroke="none">
<path d="M1510 4072 c-8 -2 -26 -15 -40 -28 l-26 -24 -39 20 c-86 42 -135 30
-223 -53 -28 -28 -35 -30 -53 -19 -17 11 -24 10 -48 -7 -68 -49 -123 -140
-137 -230 -4 -23 -22 -53 -52 -86 -43 -47 -75 -111 -87 -173 -9 -48 -16 -60
-41 -66 -34 -9 -99 -69 -119 -112 -24 -51 -18 -147 13 -203 20 -36 22 -48 13
-63 -6 -10 -11 -29 -11 -42 0 -22 44 -194 56 -221 12 -27 33 -56 71 -102 24
-28 43 -55 43 -60 0 -5 14 -22 30 -38 17 -16 30 -32 30 -37 0 -4 -16 -28 -35
-54 -19 -25 -35 -50 -35 -55 0 -14 50 -80 79 -104 42 -34 113 -57 188 -60 79
-4 126 7 160 38 13 11 25 18 28 15 6 -5 29 -124 40 -198 3 -25 8 -52 10 -60 2
-8 6 -31 9 -50 11 -71 26 -150 32 -172 6 -20 58 -25 83 -9 14 9 13 25 -6 166
-5 35 -4 38 11 26 9 -7 16 -18 16 -24 0 -5 21 -35 47 -65 42 -49 47 -61 51
-113 7 -93 2 -102 -91 -156 -45 -26 -96 -55 -112 -63 -17 -8 -33 -19 -36 -24
-9 -11 20 -66 37 -73 8 -3 44 9 81 27 38 18 131 63 208 100 230 110 209 103
219 77 40 -98 66 -146 85 -152 24 -7 27 -20 8 -28 -14 -5 -112 11 -165 27 -9
3 -32 8 -51 11 -19 3 -38 8 -42 10 -12 8 -28 -20 -31 -55 l-3 -34 110 -33 c60
-18 118 -35 130 -38 39 -8 170 -43 195 -53 14 -5 29 -10 35 -10 19 -1 15 -20
-8 -39 -32 -25 -49 -79 -48 -160 1 -121 17 -166 86 -233 43 -42 45 -43 76 -30
17 8 44 24 59 37 l28 23 35 -40 c18 -22 39 -40 45 -40 6 0 24 -16 39 -36 38
-48 109 -97 163 -113 25 -7 64 -22 88 -33 31 -15 55 -19 89 -15 38 4 53 0 83
-19 53 -35 137 -51 190 -35 49 14 113 69 130 111 9 21 20 30 36 31 101 6 173
33 237 89 24 21 44 29 68 29 81 -1 161 35 241 109 23 21 25 28 17 51 -9 23 -6
29 25 54 41 33 96 110 92 129 -2 7 -6 31 -11 53 -4 22 -12 46 -18 53 -7 9 -1
22 23 47 29 30 32 38 27 72 -4 28 -17 48 -47 74 -22 20 -40 39 -40 42 0 17
-67 102 -92 116 -18 10 -26 21 -22 31 24 58 23 67 -12 103 -18 19 -59 53 -89
77 -52 40 -58 42 -108 37 -28 -3 -65 -8 -81 -12 -21 -4 -35 -1 -50 14 -36 33
-124 80 -183 97 -70 20 -135 14 -203 -20 -39 -20 -56 -23 -75 -16 -14 5 -25
11 -25 14 0 2 15 33 33 68 47 87 59 125 66 213 1 6 21 21 46 34 77 41 95 76
110 213 9 74 2 93 -40 113 -35 16 -43 29 -26 39 5 3 7 25 5 48 -2 24 -6 77 -9
118 -9 144 -20 167 -87 168 -57 1 -62 1 -55 9 4 3 -8 32 -25 64 -32 58 -33 58
-88 66 -67 9 -82 10 -118 12 -18 1 -31 9 -37 24 -11 24 -12 24 -102 14 -78
-10 -126 -29 -176 -72 -32 -28 -48 -33 -100 -37 -68 -5 -120 -25 -184 -74 -41
-31 -44 -32 -84 -20 -49 15 -68 46 -42 68 9 7 27 36 39 63 30 64 31 140 3 224
-22 63 -64 146 -79 156 -4 3 1 22 12 42 26 51 21 143 -10 176 -12 13 -22 27
-22 33 0 5 -18 30 -40 55 -39 46 -40 46 -82 39 -43 -8 -57 -1 -58 27 0 13 -93
93 -109 93 -6 0 -11 5 -11 11 0 38 -92 103 -130 91z m-148 -47 c38 -14 48 -23
67 -64 20 -42 21 -52 11 -92 -7 -24 -14 -55 -17 -69 -8 -45 -67 -215 -78 -222
-5 -5 -26 10 -47 32 -46 50 -128 92 -191 98 -47 5 -49 6 -44 31 8 39 84 171
120 210 29 30 113 90 128 91 3 0 26 -7 51 -15z m310 -101 c52 -44 57 -51 84
-137 17 -51 22 -88 19 -143 -3 -81 -10 -98 -29 -72 -30 41 -83 33 -157 -24
l-35 -27 -63 19 c-34 11 -72 20 -82 20 -31 0 -32 21 -6 96 14 38 30 92 38 119
7 28 22 64 32 80 30 45 105 105 132 105 13 0 43 -16 67 -36z m197 -118 c47
-50 99 -147 95 -175 -11 -64 -26 -93 -43 -85 -9 5 -40 9 -69 9 l-53 0 -2 110
c-2 61 -5 116 -8 124 -2 8 7 20 21 28 33 17 33 17 59 -11z m-679 -147 c42 -19
100 -65 100 -79 0 -4 -25 -12 -55 -19 -43 -10 -65 -22 -103 -59 -27 -26 -57
-66 -67 -89 -12 -27 -22 -39 -29 -34 -21 16 -81 32 -141 38 -33 3 -62 7 -65
10 -2 2 3 34 13 70 43 166 187 233 347 162z m538 -101 c16 -16 15 -53 -2 -67
-8 -6 -23 -34 -35 -61 -24 -56 -36 -62 -45 -25 -3 13 -20 41 -37 60 -27 31
-29 37 -18 52 37 45 111 67 137 41z m-293 -23 c38 -7 130 -53 149 -74 37 -42
54 -89 53 -146 -2 -57 -2 -57 -62 -108 -109 -92 -180 -171 -210 -235 -22 -48
-32 -59 -42 -50 -7 6 -13 15 -13 20 0 6 -20 41 -45 79 -46 68 -118 139 -178
172 -18 10 -40 22 -49 28 -15 8 -14 16 12 86 16 43 36 92 45 110 25 49 101
111 148 121 42 9 134 8 192 -3z m498 -40 c59 -74 96 -175 97 -261 0 -77 -26
-129 -98 -194 -37 -33 -72 -60 -78 -60 -6 0 -14 13 -17 30 -12 56 -45 115
-111 193 l-65 78 26 72 c49 134 92 176 178 177 34 0 44 -5 68 -35z m-945 -121
c41 -17 47 -33 31 -81 -7 -21 -13 -42 -14 -48 0 -5 -29 -10 -64 -11 -57 0 -67
-4 -88 -28 -12 -15 -23 -37 -23 -49 -1 -86 -9 -160 -19 -170 -8 -8 -25 3 -66
43 -78 77 -91 110 -86 216 2 46 65 113 127 135 55 20 144 17 202 -7z m731
-203 c28 -32 60 -79 71 -103 21 -48 33 -135 19 -144 -10 -6 -54 -87 -50 -92 2
-1 0 -16 -4 -32 -8 -35 -20 -40 -136 -54 -51 -7 -98 -29 -164 -80 -8 -6 -27 1
-56 20 -43 29 -44 31 -50 94 -6 75 19 162 67 232 47 67 212 214 246 217 3 1
29 -26 57 -58z m-654 6 c97 -52 218 -198 241 -289 1 -5 2 -9 4 -10 3 -4 9 -38
16 -90 5 -39 4 -48 -8 -48 -9 0 -21 7 -28 15 -19 23 -71 28 -105 11 -17 -9
-39 -16 -50 -17 -11 0 -36 -10 -56 -22 -109 -67 -103 -60 -114 -132 -8 -55
-19 -63 -52 -39 -47 35 -65 68 -68 125 -1 30 -8 68 -14 84 -21 50 -18 100 14
240 7 33 11 80 8 105 -4 36 -1 50 18 74 21 27 24 28 88 21 36 -4 84 -16 106
-28z m1795 -62 c17 -6 57 -62 61 -85 6 -34 -15 -87 -49 -122 -20 -21 -40 -38
-45 -38 -4 0 -23 -11 -40 -24 -31 -23 -83 -54 -159 -96 l-38 -20 0 27 c-2 94
-40 196 -93 246 -17 16 -26 31 -21 36 16 14 129 60 185 75 51 15 163 15 199 1z
m-466 -69 c45 -19 116 -90 140 -139 10 -21 20 -61 23 -88 6 -54 0 -56 -56 -20
-13 8 -31 17 -40 18 -63 12 -96 10 -147 -7 -75 -26 -80 -25 -93 10 -5 17 -33
55 -62 85 -52 55 -52 55 -33 76 17 19 89 62 106 64 3 0 9 3 12 6 13 12 116 9
150 -5z m-1635 -70 l43 -44 -7 -59 c-5 -42 -2 -71 9 -103 18 -51 21 -90 7 -90
-18 0 -74 103 -86 157 -2 10 -11 48 -21 84 -17 61 -15 99 4 99 4 0 27 -20 51
-44z m1311 -26 c43 -22 118 -102 126 -136 10 -39 0 -56 -50 -83 l-48 -26 -32
38 c-28 33 -36 37 -77 37 -41 0 -51 -4 -78 -35 -17 -20 -31 -39 -31 -44 0 -11
-79 -65 -85 -59 -3 3 -8 41 -11 85 -5 68 -3 88 14 126 49 111 164 152 272 97z
m972 -97 c26 -23 46 -147 27 -170 -1 -2 -2 -6 -3 -10 -14 -61 -132 -223 -162
-223 -9 0 -14 11 -14 28 0 16 -8 36 -17 45 -19 16 -94 39 -121 36 -35 -3 -42
2 -66 49 -13 26 -33 56 -45 66 -12 11 -21 25 -21 32 0 7 39 36 88 64 48 28
102 60 120 72 58 36 179 42 214 11z m-548 -77 c58 -31 162 -148 184 -208 35
-95 10 -202 -56 -241 -31 -18 -54 -21 -171 -22 -75 -1 -147 -5 -160 -8 -51
-14 -97 -31 -118 -44 -25 -17 -39 -3 -25 24 31 59 33 255 3 342 -18 53 -20 66
-9 77 19 18 143 82 181 93 51 15 128 9 171 -13z m-427 -71 c59 -66 73 -102 80
-215 6 -92 -6 -176 -33 -237 -9 -21 -18 -40 -18 -43 -3 -12 -42 -66 -56 -77
-18 -13 -30 0 -30 33 0 11 -11 31 -25 44 -14 13 -25 20 -25 16 0 -5 -6 -3 -14
3 -22 18 -118 48 -177 55 -52 6 -57 5 -96 -29 -56 -48 -73 -46 -74 8 -3 78 0
89 36 133 20 24 37 54 38 66 1 27 103 133 163 170 22 14 59 48 81 75 59 70 86
70 150 -2z m-797 30 c7 -8 25 -21 41 -30 16 -8 41 -22 57 -29 29 -16 88 -75
115 -115 27 -41 0 -112 -55 -142 -13 -7 -15 -5 -11 11 7 28 -4 25 -51 -13 -50
-41 -88 -54 -143 -52 -96 5 -109 12 -178 91 -70 81 -69 76 -50 170 8 40 165
121 236 123 15 1 32 -6 39 -14z m493 -57 l5 -63 -48 -43 c-30 -26 -53 -57 -61
-80 -12 -39 -36 -72 -51 -72 -18 0 6 107 39 177 19 40 34 76 35 80 1 19 41 63
57 63 15 0 19 -11 24 -62z m-93 31 c0 -8 -24 -59 -64 -136 -17 -32 -24 -71
-30 -173 -2 -30 -4 -61 -5 -67 -2 -25 -39 -13 -82 26 l-44 40 33 28 c28 24 34
36 39 83 5 50 3 57 -21 79 -34 32 -33 41 7 78 50 47 167 77 167 42z m1463
-112 c7 -12 1 -140 -10 -183 -5 -22 -63 -75 -95 -87 -12 -4 -19 0 -23 14 -5
15 -29 37 -84 76 -3 2 9 18 27 36 72 74 83 88 103 127 19 37 25 41 48 35 14
-4 29 -12 34 -18z m-305 -78 c17 -6 33 -18 36 -27 12 -40 0 -55 -65 -79 -99
-37 -98 -37 -94 -16 2 10 4 19 5 21 5 5 8 25 9 67 l1 45 39 0 c21 0 52 -5 69
-11z m-1801 -78 c73 -80 110 -101 173 -101 45 0 50 -8 19 -36 -32 -29 -186
-27 -251 3 -39 19 -118 94 -118 112 0 15 82 99 94 97 8 -1 45 -35 83 -75z
m1908 -64 c38 -21 40 -25 43 -77 2 -30 -2 -75 -9 -100 -7 -25 -13 -47 -12 -50
0 -9 -59 -114 -75 -132 -21 -25 -76 -23 -112 4 -22 16 -45 22 -88 22 -55 1
-57 2 -54 26 2 14 5 72 7 129 3 88 6 106 21 115 166 99 199 107 279 63z
m-1501 -6 c3 -4 -3 -27 -14 -49 -11 -23 -20 -54 -20 -69 0 -16 -7 -39 -16 -51
-19 -28 -10 -41 16 -24 11 7 23 12 26 12 12 0 -5 -73 -22 -91 -12 -13 -14 -22
-7 -31 6 -7 13 -44 17 -83 4 -38 9 -85 12 -103 4 -24 1 -34 -11 -38 -26 -10
-23 -17 -50 141 -9 49 -18 104 -21 120 -3 17 -7 41 -9 55 -2 14 -8 50 -14 80
-6 30 -13 65 -15 77 -4 18 2 26 27 37 52 24 93 31 101 17z m1154 -97 c24 -5
24 -6 18 -102 -7 -124 -5 -119 -31 -145 -58 -58 -104 -87 -139 -87 -19 0 -57
-8 -83 -19 -47 -18 -49 -18 -78 0 -56 35 -99 51 -150 56 -58 5 -80 11 -72 19
3 3 -1 24 -9 46 -14 40 -14 41 20 78 19 21 39 47 45 57 11 21 119 79 166 89
83 17 251 22 313 8z m-698 -45 c63 -26 95 -51 98 -76 2 -21 10 -57 12 -60 2
-2 3 -6 5 -10 1 -5 5 -15 8 -23 13 -32 22 -97 19 -147 -3 -47 -7 -56 -38 -79
-36 -28 -87 -35 -107 -15 -8 8 -7 11 1 11 7 0 12 4 12 9 0 5 -26 11 -57 14
-32 2 -65 6 -74 9 -23 6 -110 84 -124 111 -7 13 -13 66 -14 118 l-2 94 43 38
c41 36 45 38 103 33 33 -2 85 -14 115 -27z m-293 -31 c4 -7 8 -44 9 -83 2
-143 1 -140 49 -193 24 -27 42 -52 38 -56 -16 -15 -39 -2 -85 49 -39 42 -56
53 -72 49 -18 -4 -26 4 -49 49 -29 58 -43 123 -33 162 6 24 7 24 103 33 17 1
35 -3 40 -10z m1147 -188 c35 -13 33 -24 -11 -51 -21 -12 -61 -42 -90 -66 -28
-24 -58 -43 -66 -43 -8 0 -29 16 -47 36 l-31 36 28 30 c54 58 150 84 217 58z
m491 -28 c11 -6 36 -18 56 -27 20 -9 61 -38 91 -65 51 -46 56 -53 52 -86 -3
-39 -41 -101 -71 -120 -10 -6 -60 -22 -112 -35 l-94 -24 -71 78 c-39 43 -75
77 -79 77 -5 0 -22 9 -38 21 -16 11 -29 17 -29 13 0 -3 -7 0 -17 7 -9 8 -18
13 -20 12 -1 -2 -7 -3 -13 -3 -47 0 109 144 177 164 29 8 147 0 168 -12z
m-332 -21 c15 -6 27 -14 27 -18 -1 -5 -20 -29 -43 -55 -42 -46 -42 -47 -112
-49 -38 -1 -89 -9 -112 -17 -24 -7 -48 -12 -54 -10 -24 8 90 101 191 157 18
10 65 6 103 -8z m-686 -35 c61 -33 61 -31 9 -86 -26 -28 -54 -67 -63 -87 -18
-44 -13 -115 13 -168 18 -39 10 -56 -25 -50 -14 2 -15 15 -12 92 4 113 -9 126
-45 46 -32 -69 -71 -123 -90 -123 -18 0 -79 79 -92 120 -7 19 -14 52 -16 73
-4 36 -4 37 30 38 19 1 38 2 44 3 5 0 27 18 50 39 35 34 40 44 40 82 0 38 3
44 23 47 32 5 102 -9 134 -26z m326 -88 l78 -83 -5 -50 c-8 -80 -34 -140 -77
-180 l-40 -36 -41 36 c-37 34 -44 36 -86 31 -30 -4 -54 -14 -73 -32 -28 -27
-29 -27 -50 -8 -27 24 -66 109 -72 156 -10 79 54 163 163 215 101 49 113 46
203 -49z m1077 20 c76 -58 109 -96 103 -117 -10 -37 -29 -44 -75 -29 -24 8
-74 16 -113 17 -38 1 -72 5 -75 7 -2 3 -4 36 -5 74 0 77 -1 77 76 79 38 1 55
-5 89 -31z m-1987 -19 c24 -36 26 -45 21 -96 -5 -41 -4 -54 4 -49 7 4 12 13
12 19 0 7 22 37 50 67 l50 55 47 -26 c51 -27 66 -55 36 -66 -22 -7 -232 -106
-368 -173 -73 -36 -103 -46 -112 -38 -21 17 -15 25 40 53 28 14 67 35 86 46
19 11 43 21 54 22 31 2 41 36 42 134 0 51 2 93 5 93 3 -1 17 -19 33 -41z
m1245 -34 c67 -10 98 -29 174 -103 85 -83 89 -70 -67 -210 -44 -40 -85 -72
-91 -72 -6 0 -17 -6 -23 -14 -6 -7 -44 -23 -84 -34 -66 -20 -78 -20 -145 -9
l-74 13 -24 48 -25 49 35 29 c53 44 87 129 90 228 1 32 4 61 7 64 17 18 143
24 227 11z m696 -104 c96 -14 184 -59 225 -116 48 -67 45 -98 -15 -154 -27
-24 -60 -47 -74 -53 -41 -16 -264 -59 -277 -54 -7 3 -13 18 -13 34 0 15 -6 52
-14 82 l-14 55 39 42 c22 24 44 54 49 68 10 26 0 68 -20 80 -5 3 -8 10 -6 13
7 12 51 13 120 3z m-130 -37 c9 -8 16 -21 16 -28 0 -24 -31 -75 -57 -96 l-27
-21 -20 26 c-12 14 -38 36 -60 49 -42 25 -41 27 19 46 22 7 49 19 60 26 26 18
50 18 69 -2z m-1334 -90 c0 -38 -5 -50 -32 -75 -18 -16 -36 -29 -40 -29 -5 0
-8 -7 -8 -15 0 -17 12 -19 26 -5 6 6 33 12 60 13 27 2 64 11 81 19 28 14 34
14 44 2 8 -9 8 -18 2 -26 -6 -7 -16 -30 -22 -50 -7 -21 -17 -40 -22 -44 -5 -3
-31 2 -57 10 -37 12 -213 59 -302 81 -8 2 -16 4 -17 5 -2 2 -6 3 -10 4 -49 10
-103 31 -107 42 -9 22 22 28 73 15 25 -6 55 -13 66 -15 49 -10 81 -19 92 -28
23 -19 125 68 146 125 12 32 27 17 27 -29z m1155 9 c86 -44 120 -108 131 -255
14 -168 -59 -261 -241 -308 -94 -24 -115 -25 -115 -5 0 37 -56 121 -128 193
-84 83 -97 94 -125 105 -20 7 -18 31 1 33 7 1 13 2 15 4 1 1 10 3 19 5 41 8
136 74 217 151 49 46 99 88 112 92 29 11 74 5 114 -15z m-794 -105 c25 -29 58
-81 74 -115 15 -35 34 -68 41 -74 16 -13 18 -42 5 -67 -6 -9 -21 -42 -35 -72
-14 -30 -39 -70 -56 -88 -27 -29 -39 -34 -89 -39 l-58 -4 -70 76 -70 75 -2 70
c-2 83 15 128 72 178 27 25 34 37 25 43 -6 4 -16 5 -20 3 -22 -14 -4 17 23 40
22 19 42 26 73 26 39 0 46 -5 87 -52z m1408 -226 c15 -57 17 -54 -60 -133 -45
-45 -116 -85 -222 -124 -26 -10 -49 -16 -51 -14 -2 2 -6 31 -8 65 -6 70 -27
121 -75 181 -39 49 -41 61 -10 68 54 13 226 46 262 52 22 3 42 7 44 9 2 2 27
-9 55 -25 46 -25 52 -34 65 -79z m-1134 53 c97 -45 214 -161 257 -255 18 -39
21 -60 19 -137 -1 -48 -4 -54 -32 -69 -23 -11 -41 -14 -68 -8 -20 5 -43 7 -51
7 -14 -2 -164 -14 -220 -18 -14 -1 -43 7 -65 19 -22 11 -47 21 -55 22 -8 2
-35 6 -59 9 -33 5 -52 16 -77 43 -54 59 -44 82 38 82 35 0 46 6 84 47 24 26
47 57 53 68 61 129 64 146 35 190 -9 13 -13 28 -10 34 7 11 95 -8 151 -34z
m-559 -56 c1 -21 2 -50 3 -64 1 -16 29 -56 76 -109 l75 -84 -25 -31 c-14 -16
-40 -37 -58 -46 l-32 -16 -41 45 c-47 51 -69 114 -68 196 1 78 21 144 46 153
19 6 23 0 24 -44z m1305 -112 c42 -98 21 -225 -47 -289 -33 -30 -120 -61 -177
-62 l-39 -1 0 65 c0 35 -7 85 -14 110 -8 25 -14 46 -14 47 0 1 23 9 50 18 67
22 133 89 155 156 l17 51 23 -22 c13 -12 33 -45 46 -73z m-305 -177 c18 -37
23 -119 12 -171 -11 -55 -63 -121 -114 -145 -40 -19 -123 -15 -168 9 -45 24
-140 137 -126 151 7 7 46 10 105 8 87 -2 96 0 122 22 22 20 29 34 33 82 4 51
8 57 29 61 14 2 26 5 28 7 2 2 18 3 36 2 24 -1 35 -7 43 -26z m-597 -148 c14
-10 26 -16 28 -14 2 1 31 2 66 1 61 0 63 -1 100 -46 29 -34 35 -48 27 -58 -14
-17 -48 -11 -120 20 -30 13 -66 26 -80 29 -34 8 -120 73 -120 90 0 12 7 12 37
4 20 -5 48 -17 62 -26z"/>
</g>
</svg>
