<?xml version="1.0" standalone="no"?>
<!DOCTYPE svg PUBLIC "-//W3C//DTD SVG 20010904//EN"
 "http://www.w3.org/TR/2001/REC-SVG-20010904/DTD/svg10.dtd">
<svg version="1.0" xmlns="http://www.w3.org/2000/svg"
 width="441.000000pt" height="452.000000pt" viewBox="0 0 441.000000 452.000000"
 preserveAspectRatio="xMidYMid meet">
<metadata>
Created by potrace 1.10, written by Peter Selinger 2001-2011
</metadata>
<g transform="translate(0.000000,452.000000) scale(0.100000,-0.100000)"
fill="#000000" stroke="none">
<path d="M2844 4064 c-38 -20 -74 -54 -74 -71 0 -8 -8 -16 -17 -20 -27 -10
-113 -83 -113 -96 -1 -28 -15 -35 -58 -27 -42 7 -44 6 -77 -35 -19 -23 -35
-46 -35 -52 0 -5 -11 -20 -25 -33 -31 -29 -42 -95 -24 -147 7 -21 13 -41 14
-45 0 -3 3 -10 7 -14 4 -4 -1 -19 -12 -34 -11 -16 -20 -32 -20 -37 0 -5 -6
-15 -12 -21 -7 -7 -13 -16 -14 -20 0 -4 -6 -20 -13 -37 -47 -114 -34 -240 33
-314 20 -22 10 -61 -16 -61 -11 0 -28 -5 -39 -11 -16 -8 -28 -4 -67 24 -70 50
-120 70 -187 75 -52 4 -66 9 -107 43 -48 40 -116 64 -210 72 -49 4 -68 -5 -68
-33 0 -12 -11 -16 -47 -16 -27 0 -73 -3 -103 -7 -55 -8 -56 -9 -85 -64 -17
-30 -29 -59 -27 -64 1 -5 -13 -9 -30 -9 -79 0 -105 -30 -107 -125 -6 -200 -9
-239 -22 -243 -8 -3 -24 -13 -35 -24 -23 -20 -25 -64 -8 -168 4 -25 7 -48 6
-51 -2 -12 63 -71 102 -93 31 -17 40 -29 42 -52 5 -69 59 -209 90 -235 21 -17
17 -25 -16 -39 -26 -11 -33 -10 -48 2 -34 30 -121 51 -180 44 -66 -8 -160 -48
-220 -94 -33 -25 -49 -31 -70 -26 -116 24 -143 17 -241 -72 -57 -52 -63 -61
-58 -88 3 -17 8 -38 11 -46 4 -10 -4 -21 -22 -31 -25 -14 -92 -99 -92 -116 0
-3 -18 -22 -40 -40 -22 -19 -38 -38 -35 -43 3 -5 1 -11 -5 -15 -23 -14 -10
-63 24 -93 25 -22 31 -33 23 -41 -6 -6 -12 -16 -13 -23 -9 -53 -16 -82 -19
-88 -6 -10 26 -53 88 -116 30 -32 45 -54 38 -58 -24 -15 -9 -45 42 -84 82 -63
130 -82 213 -86 18 -1 46 -15 70 -34 55 -45 148 -80 220 -81 26 -1 35 -7 48
-35 33 -71 132 -124 207 -113 50 8 101 27 124 48 16 13 31 16 68 12 28 -3 57
-1 70 6 12 6 52 22 88 34 85 30 129 58 177 113 22 24 44 44 50 44 6 0 25 18
42 40 29 36 34 39 49 27 9 -8 35 -24 58 -37 l42 -23 33 28 c67 56 99 126 104
228 3 74 -20 155 -53 185 -14 13 -24 25 -21 27 4 4 211 65 243 71 11 2 70 19
130 37 l110 33 -3 39 c-4 48 -15 56 -56 44 -17 -5 -42 -11 -56 -14 -14 -3 -36
-7 -50 -10 -92 -20 -116 -23 -125 -14 -7 7 -3 16 11 27 25 20 69 96 78 134 6
28 38 39 50 19 3 -5 17 -12 31 -15 26 -7 117 -48 145 -66 47 -30 274 -131 285
-126 19 7 45 60 37 73 -4 5 -29 21 -57 35 -182 92 -185 95 -182 192 3 74 4 77
44 118 22 24 49 59 59 78 24 48 28 26 14 -77 -9 -70 -9 -88 2 -94 20 -13 78
-10 83 4 2 6 16 80 30 162 28 160 35 204 39 220 2 6 6 31 11 58 4 26 10 47 13
47 3 0 15 -8 26 -19 33 -29 81 -40 159 -37 115 6 188 43 248 126 l28 39 -40
51 c-39 49 -40 52 -24 73 8 12 26 36 38 52 12 17 38 51 58 75 42 51 76 113 82
150 3 14 12 50 21 79 19 63 20 104 6 132 -9 15 -7 26 9 47 35 50 45 122 26
187 -16 57 -82 129 -128 140 -19 5 -29 15 -33 34 -25 114 -38 142 -89 198 -33
38 -54 70 -58 93 -17 95 -29 119 -100 194 -51 54 -55 56 -81 45 -24 -11 -29
-10 -59 18 -87 83 -136 95 -222 53 l-39 -20 -26 24 c-35 33 -53 37 -86 20z
m276 -39 c7 -8 18 -15 24 -15 21 -1 95 -79 128 -137 33 -57 78 -148 78 -158 0
-3 -16 -5 -36 -5 -64 0 -134 -32 -195 -87 -43 -40 -59 -50 -66 -40 -14 17 -75
212 -90 287 -9 42 -7 54 11 97 14 34 26 45 59 57 55 19 72 19 87 1z m-251
-105 c54 -43 70 -71 97 -165 9 -33 21 -66 26 -72 6 -7 8 -13 4 -13 -3 0 1 -18
10 -40 19 -47 16 -62 -14 -67 -12 -1 -50 -12 -84 -24 l-61 -20 -26 24 c-58 54
-112 67 -154 37 -16 -12 -31 -20 -33 -17 -3 2 -5 44 -5 93 -2 114 24 191 83
251 23 23 45 40 49 37 4 -2 10 0 14 6 12 20 44 10 94 -30z m-261 -114 c10 -10
10 -19 2 -42 -7 -16 -10 -68 -8 -119 l3 -90 -50 0 c-27 0 -60 -4 -72 -8 -18
-7 -23 -3 -33 29 -16 48 -8 105 22 146 81 111 79 109 101 102 12 -3 28 -12 35
-18z m838 -146 c21 -12 46 -30 54 -39 34 -35 87 -181 72 -196 -3 -3 -28 -5
-56 -5 -29 0 -75 -10 -106 -23 l-55 -23 -26 50 c-35 67 -100 122 -167 139
l-53 13 21 27 c19 23 91 65 140 79 38 12 138 -1 176 -22z m-653 -128 l30 -30
-25 -31 c-14 -16 -32 -44 -39 -61 -17 -38 -29 -34 -46 15 -7 22 -22 49 -33 60
-23 24 -25 38 -9 67 16 30 82 19 122 -20z m405 -9 c38 -18 86 -66 108 -109 32
-59 72 -181 65 -193 -5 -7 -10 -12 -12 -11 -13 5 -62 -24 -106 -61 -64 -55
-129 -137 -155 -196 -22 -50 -25 -49 -62 23 -33 63 -114 154 -201 224 -74 61
-86 93 -66 170 18 67 99 142 170 155 9 2 16 4 16 5 0 1 20 4 44 6 25 3 47 7
50 10 10 9 115 -7 149 -23z m-561 -29 c28 -22 67 -101 97 -199 4 -16 -10 -39
-59 -95 -72 -81 -108 -149 -114 -212 -2 -22 -37 -1 -98 60 -73 71 -93 111 -93
189 0 76 65 230 116 274 38 33 91 27 151 -17z m995 -117 c98 -51 136 -142 101
-242 -12 -36 -116 -155 -135 -155 -14 0 -28 77 -24 132 4 49 1 59 -24 89 -26
32 -31 33 -86 31 l-59 -2 -18 50 c-27 75 -17 85 108 114 30 7 111 -3 137 -17z
m-830 -183 c72 -60 168 -153 168 -163 0 -5 7 -15 16 -22 24 -20 65 -119 66
-159 3 -120 0 -133 -41 -162 -49 -35 -61 -35 -95 1 -30 31 -106 59 -171 62
-60 4 -92 23 -100 61 -4 18 -20 57 -35 87 -16 29 -26 63 -24 75 2 11 7 34 9
50 3 15 12 41 20 56 22 42 115 150 130 150 7 0 33 -16 57 -36z m723 0 c16 -12
20 -28 21 -80 2 -56 8 -104 20 -149 23 -89 23 -157 1 -215 -3 -8 -8 -42 -12
-75 -6 -60 -31 -101 -79 -127 -25 -13 -33 -2 -41 57 -6 50 -19 75 -38 75 -6 0
-21 9 -33 21 -30 28 -165 77 -205 74 -18 -2 -38 -10 -44 -19 -7 -9 -19 -16
-27 -16 -27 0 -10 110 30 200 48 107 180 234 269 259 47 13 118 10 138 -5z
m-1750 -89 c75 -26 155 -64 155 -75 0 -5 -8 -15 -18 -22 -17 -13 -45 -52 -69
-97 -7 -13 -16 -49 -19 -80 -3 -31 -7 -66 -10 -79 l-4 -22 -38 20 c-20 11 -50
29 -67 40 -16 10 -40 25 -51 32 -59 36 -130 86 -140 99 -6 8 -18 32 -27 55
-15 39 -15 42 10 85 31 55 26 51 70 59 58 11 152 4 208 -15z m423 -73 c26 -13
58 -35 71 -47 l24 -23 -52 -59 c-29 -32 -59 -73 -66 -91 -13 -29 -17 -32 -35
-22 -92 49 -178 44 -294 -18 -7 -4 -5 29 7 88 12 67 86 154 156 187 43 20 136
13 189 -15z m1514 -29 c3 -10 -1 -37 -8 -60 -7 -24 -10 -43 -7 -43 3 0 -1 -7
-8 -17 -8 -9 -13 -19 -12 -22 12 -28 -63 -181 -87 -181 -11 0 -4 65 9 89 14
25 16 66 7 120 -8 41 -7 45 35 87 46 47 65 54 71 27z m-1222 -38 c58 -17 108
-74 127 -145 6 -22 5 -78 -2 -131 -6 -40 -9 -46 -26 -42 -11 3 -45 34 -75 69
-52 59 -60 64 -97 64 -34 0 -48 -7 -79 -37 -36 -35 -39 -36 -65 -23 -43 22
-73 51 -73 73 0 34 65 114 124 152 45 30 109 38 166 20z m-950 -107 c19 -6 44
-18 55 -28 11 -9 57 -38 103 -64 45 -26 82 -53 82 -59 0 -6 -9 -20 -20 -32
-11 -11 -31 -43 -44 -69 -24 -47 -25 -48 -78 -51 -91 -6 -128 -30 -128 -84 0
-12 -5 -21 -12 -21 -17 0 -107 100 -124 140 -9 19 -23 51 -33 70 -18 37 -19
70 -7 137 8 44 28 68 61 75 29 6 104 -2 145 -14z m595 -93 c33 -16 79 -40 102
-53 l42 -23 -24 -64 c-22 -57 -24 -77 -21 -182 3 -113 8 -151 21 -173 9 -15
-5 -32 -18 -22 -15 11 -87 39 -124 48 -15 4 -89 8 -163 9 -156 2 -186 12 -216
72 -24 49 -25 174 -2 216 29 51 127 155 170 180 62 35 152 32 233 -8z m308
-20 c18 -8 39 -28 48 -44 9 -15 38 -43 65 -61 104 -71 174 -146 174 -187 0 -7
11 -26 25 -41 38 -41 55 -85 51 -128 -3 -22 -5 -45 -5 -51 -2 -24 -37 -13 -71
22 -33 34 -37 36 -90 31 -58 -6 -134 -28 -157 -47 -7 -6 -13 -8 -13 -4 0 4 -6
2 -13 -4 -8 -6 -16 -8 -19 -5 -10 9 -48 -48 -48 -72 0 -36 -16 -37 -44 -3 -72
86 -112 266 -87 396 8 37 16 73 20 78 3 6 6 13 6 16 0 14 100 119 113 119 8 0
28 -7 45 -15z m786 -10 c22 -8 41 -12 41 -10 0 6 38 -16 87 -49 44 -30 48 -35
58 -104 7 -42 6 -44 -60 -117 -69 -78 -83 -85 -178 -90 -56 -2 -94 11 -141 52
-28 23 -42 30 -47 21 -4 -7 -5 -16 -2 -21 3 -5 -3 -4 -13 1 -35 19 -60 57 -63
95 -2 32 4 45 44 92 29 34 67 64 100 81 29 14 61 34 71 45 21 23 47 24 103 4z
m-530 -24 c12 -16 21 -32 21 -35 0 -4 16 -39 36 -79 22 -44 37 -92 40 -124 6
-55 -2 -65 -29 -35 -16 17 -17 21 -17 46 0 8 -26 43 -57 76 -52 57 -57 66 -54
104 5 83 24 98 60 47z m106 6 c35 -5 95 -39 115 -64 l19 -25 -30 -38 c-30 -37
-31 -40 -20 -90 7 -34 20 -59 38 -76 l28 -24 -44 -40 c-50 -45 -81 -52 -82
-17 -6 165 -13 195 -66 296 -37 71 -37 95 -1 86 13 -3 32 -6 43 -8z m-1465
-121 c5 -13 39 -58 75 -100 37 -43 66 -78 64 -80 -2 -1 -19 -13 -37 -25 -18
-13 -37 -34 -42 -47 -12 -30 -32 -24 -82 24 -37 35 -39 42 -54 168 -5 46 -3
53 17 68 32 22 48 20 59 -8z m343 -118 c3 -29 8 -63 11 -75 6 -27 -10 -30 -39
-9 -11 8 -40 20 -63 27 -24 7 -47 20 -52 28 -4 9 -10 19 -12 22 -5 9 24 40 47
49 11 5 39 9 61 9 l42 1 5 -52z m1828 -6 c21 -25 39 -50 39 -57 0 -21 -94
-101 -136 -116 -21 -7 -78 -14 -125 -14 -71 0 -91 3 -108 19 -26 23 -19 36 21
36 68 0 103 20 174 99 38 43 75 77 82 77 7 1 31 -19 53 -44z m-1856 -109 c118
-58 110 -48 111 -133 0 -41 4 -101 7 -133 l7 -58 -37 3 c-51 3 -108 -9 -123
-27 -13 -15 -56 -20 -84 -9 -22 8 -81 116 -100 183 -19 64 -20 140 -3 161 13
17 69 45 102 52 26 6 36 2 120 -39z m1413 -6 c35 -12 36 -14 23 -72 -5 -22
-12 -56 -15 -75 -3 -19 -8 -46 -10 -60 -3 -14 -14 -81 -26 -150 -25 -151 -28
-160 -45 -160 -22 0 -25 14 -15 76 5 32 10 77 11 99 2 22 7 47 13 56 7 12 3
24 -12 44 -12 15 -22 41 -22 57 0 28 1 29 22 14 34 -24 56 -21 34 3 -10 11
-20 36 -22 57 -2 20 -12 55 -23 77 -11 22 -18 44 -15 49 6 10 48 3 102 -15z
m-928 -93 c14 -4 31 -11 38 -17 6 -5 12 -6 12 -2 0 5 8 2 18 -6 9 -8 30 -21
46 -29 16 -8 36 -25 45 -38 9 -13 28 -38 43 -56 22 -26 30 -59 18 -73 -2 -2
-4 -7 -5 -13 -1 -5 -4 -12 -5 -15 -1 -3 -3 -9 -4 -14 -2 -16 -10 -19 -56 -22
-52 -3 -111 -24 -158 -55 l-33 -23 -42 19 c-23 11 -61 20 -84 20 -34 0 -51 7
-80 33 -21 19 -45 36 -54 40 -27 9 -47 86 -45 178 l1 84 55 3 c30 2 58 4 63 5
14 4 202 -12 227 -19z m588 -41 l44 -38 1 -90 c1 -108 -10 -132 -83 -194 -48
-40 -57 -44 -121 -49 -64 -4 -86 -14 -56 -25 21 -7 2 -17 -36 -19 -25 -1 -47
7 -71 26 -36 27 -36 27 -36 105 0 46 5 82 12 89 7 7 9 12 6 12 -4 0 -1 15 7
34 8 18 17 49 20 67 3 19 10 38 15 43 24 24 157 73 204 75 46 1 55 -2 94 -36z
m215 -30 c18 -11 0 -127 -28 -181 -23 -44 -30 -51 -50 -46 -17 4 -30 -4 -59
-37 -20 -23 -36 -46 -36 -50 0 -12 -35 -20 -54 -13 -15 6 -12 12 18 43 55 56
63 81 65 188 1 53 5 101 8 106 6 9 119 1 136 -10z m-1152 -185 c38 -13 109
-67 109 -83 0 -6 -18 -28 -39 -49 l-39 -38 -42 39 c-24 21 -63 52 -88 68 -25
17 -47 36 -50 43 -9 28 88 41 149 20z m-434 -21 c39 -15 163 -123 163 -143 0
-8 -7 -14 -16 -14 -33 0 -124 -62 -191 -131 l-71 -73 -54 13 c-137 33 -193 67
-214 131 -18 56 -13 70 42 117 44 38 164 110 164 98 0 -3 10 0 23 5 31 12 116
11 154 -3z m283 -41 c60 -30 168 -121 158 -131 -4 -4 -28 -1 -55 7 -27 8 -79
16 -116 17 -66 2 -69 3 -110 48 -23 25 -43 49 -45 54 -3 8 84 38 103 35 6 -1
35 -14 65 -30z m703 -42 c7 -65 56 -114 121 -121 46 -6 47 -6 43 -37 -9 -63
-31 -117 -64 -156 -19 -22 -40 -40 -47 -40 -22 0 -98 126 -100 165 -1 6 -8 10
-16 10 -8 0 -14 -6 -12 -12 5 -29 -17 -10 -24 19 -9 43 -30 76 -76 117 -43 38
-46 46 -20 55 9 4 33 16 52 26 22 13 54 20 86 20 l51 0 6 -46z m-271 -20 c63
-32 114 -78 135 -122 32 -67 11 -172 -45 -234 l-25 -27 -35 27 c-26 20 -46 26
-83 27 -41 0 -53 -5 -82 -33 l-35 -34 -39 35 c-42 39 -70 102 -78 182 l-5 50
72 76 c40 42 80 79 88 81 27 9 84 -4 132 -28z m-1153 0 c29 -6 31 -8 25 -45
-4 -21 -2 -51 4 -68 6 -17 8 -33 4 -35 -4 -3 -41 -6 -82 -7 -41 -1 -94 -9
-117 -17 -34 -13 -44 -13 -57 -3 -33 27 -19 58 54 121 74 63 93 69 169 54z
m1891 -25 c-8 -25 -2 -153 9 -181 7 -19 15 -26 26 -22 9 4 23 0 33 -7 19 -15
33 -24 110 -64 50 -26 66 -49 40 -58 -7 -2 -20 0 -28 4 -8 5 -91 45 -185 89
-263 125 -280 134 -280 150 0 7 21 25 47 39 l48 25 50 -53 c27 -29 50 -59 50
-67 0 -7 5 -16 11 -20 7 -4 10 12 7 53 -2 49 1 63 20 87 12 16 22 33 22 38 0
5 6 8 13 5 6 -2 10 -11 7 -18z m-1076 -59 c20 -7 24 -16 25 -63 2 -90 36 -183
83 -228 l41 -39 -24 -46 c-13 -25 -28 -47 -34 -49 -5 -1 -38 -8 -72 -14 -74
-14 -143 2 -231 51 -63 36 -232 193 -232 216 0 17 108 132 124 132 5 0 17 7
26 15 39 35 227 51 294 25z m-792 -96 c4 -3 0 -17 -8 -32 -25 -49 -12 -92 45
-146 25 -24 30 -35 25 -59 -2 -17 -7 -34 -10 -39 -3 -4 -8 -29 -11 -55 -3 -27
-7 -50 -9 -52 -4 -5 -255 46 -285 58 -13 5 -46 30 -73 55 -45 42 -48 48 -43
81 18 108 153 188 328 194 20 0 38 -2 41 -5z m83 -38 c11 -7 38 -19 60 -26 41
-13 68 -30 48 -30 -6 0 -33 -20 -60 -44 l-49 -44 -25 22 c-14 12 -34 36 -44
53 -17 30 -17 33 -1 57 18 29 42 33 71 12z m1306 -86 c37 -60 139 -135 139
-101 0 4 28 14 63 21 34 8 64 14 67 15 33 10 81 16 89 11 27 -17 -20 -46 -101
-61 -10 -2 -33 -9 -51 -15 -37 -12 -213 -60 -240 -65 -10 -2 -33 -10 -52 -17
-41 -14 -45 -11 -69 55 -24 64 -17 81 23 61 17 -9 56 -18 86 -21 31 -3 58 -10
61 -14 8 -14 24 -10 24 5 0 8 -14 23 -30 33 -19 11 -34 30 -40 53 -11 37 -13
90 -5 90 3 0 19 -22 36 -50z m-983 -61 c74 -69 179 -149 196 -149 3 0 17 -5
33 -12 15 -6 31 -12 35 -12 3 -1 10 -5 14 -9 9 -9 -44 -56 -63 -57 -21 0 -150
-149 -177 -203 -14 -30 -26 -60 -26 -67 0 -27 -189 23 -254 68 -44 31 -83 86
-92 134 -24 122 2 264 59 327 31 34 95 61 145 61 41 0 49 -5 130 -81z m750
-25 c20 -20 29 -33 20 -30 -33 10 -30 -15 5 -45 45 -38 66 -91 69 -172 2 -71
0 -76 -86 -167 l-57 -62 -60 6 c-42 3 -65 10 -75 23 -33 42 -74 102 -74 109 0
4 -10 27 -21 52 -18 36 -19 47 -10 65 7 12 23 42 36 67 14 25 25 50 25 57 0 6
25 39 56 72 50 55 60 61 95 61 31 0 47 -7 77 -36z m-1368 -153 c19 -6 51 -12
70 -16 77 -12 162 -33 171 -42 6 -6 -4 -25 -24 -49 -64 -76 -86 -134 -82 -217
1 -45 -5 -46 -88 -11 -145 61 -198 98 -243 172 -18 29 -19 38 -9 79 10 37 19
50 51 69 42 24 97 30 154 15z m1080 -15 c0 -7 -7 -19 -15 -26 -17 -14 -20 -61
-6 -88 6 -9 21 -42 35 -72 13 -30 42 -74 65 -97 35 -38 46 -43 84 -43 24 0 51
-6 61 -13 16 -12 15 -16 -18 -58 -35 -46 -63 -59 -134 -59 -13 0 -38 -10 -55
-22 -34 -24 -85 -27 -212 -12 -74 8 -100 8 -145 -1 -28 -5 -41 -2 -63 15 -24
19 -27 27 -27 86 0 36 7 81 15 101 62 148 252 300 378 302 25 1 37 -3 37 -13z
m443 -44 c39 -43 46 -194 13 -272 -8 -19 -32 -52 -54 -73 l-40 -39 -28 18
c-45 27 -74 56 -74 72 0 7 33 50 72 94 l72 80 4 69 c2 38 8 69 12 69 4 0 14
-8 23 -18z m-1263 -72 c0 -31 34 -91 72 -126 30 -29 113 -74 136 -74 6 0 2
-21 -7 -47 -11 -30 -18 -74 -17 -116 l1 -68 -47 5 c-159 20 -242 107 -237 248
1 35 5 68 10 73 4 6 8 15 9 20 8 35 55 105 71 105 5 0 9 -9 9 -20z m316 -231
c24 -6 45 -14 45 -18 1 -3 2 -27 3 -54 2 -34 8 -54 24 -70 20 -20 33 -22 122
-22 132 0 138 -7 70 -85 -105 -122 -235 -135 -319 -33 -39 48 -55 108 -49 193
7 100 19 110 104 89z m569 -184 c-31 -27 -67 -48 -95 -55 -25 -6 -49 -15 -55
-19 -5 -5 -34 -16 -64 -26 -45 -15 -55 -15 -67 -4 -11 12 -6 22 29 63 l43 49
66 -1 c47 0 77 5 100 18 18 11 47 19 63 19 l30 0 -50 -44z"/>
</g>
</svg>
