<?xml version="1.0" encoding="UTF-8" standalone="no"?>
<?xml-stylesheet type="text/css" href="hop-styles.css" ?>
<svg
   xmlns:dc="http://purl.org/dc/elements/1.1/"
   xmlns:cc="http://creativecommons.org/ns#"
   xmlns:rdf="http://www.w3.org/1999/02/22-rdf-syntax-ns#"
   xmlns:svg="http://www.w3.org/2000/svg"
   xmlns="http://www.w3.org/2000/svg"
   xmlns:sodipodi="http://sodipodi.sourceforge.net/DTD/sodipodi-0.dtd"
   xmlns:inkscape="http://www.inkscape.org/namespaces/inkscape"
   preserveAspectRatio="xMinYMin meet"
   viewBox="0 0 424 436"
   version="1.1"
   id="svg3343"
   inkscape:version="0.48.2 r9819"
   sodipodi:docname="hops_right_dualcolor.svg">
  <metadata
     id="metadata3465">
    <rdf:RDF>
      <cc:Work
         rdf:about="">
        <dc:format>image/svg+xml</dc:format>
        <dc:type
           rdf:resource="http://purl.org/dc/dcmitype/StillImage" />
        <dc:title></dc:title>
      </cc:Work>
    </rdf:RDF>
  </metadata>
  <defs
     id="defs3463" />
  <sodipodi:namedview
     pagecolor="#ffffff"
     bordercolor="#666666"
     borderopacity="1"
     objecttolerance="10"
     gridtolerance="10"
     guidetolerance="10"
     inkscape:pageopacity="0"
     inkscape:pageshadow="2"
     inkscape:window-width="1270"
     inkscape:window-height="862"
     id="namedview3461"
     showgrid="false"
     inkscape:zoom="1.0055046"
     inkscape:cx="88.968978"
     inkscape:cy="272.5"
     inkscape:window-x="0"
     inkscape:window-y="0"
     inkscape:window-maximized="0"
     inkscape:current-layer="svg3343" />
  <path
     class="outline"
     d=" M 111.76 55.63 C 116.67 52.50 120.68 47.97 126.04 45.52 C 131.02 45.39 135.53 48.13 140.03 49.96 C 142.98 47.76 145.78 44.25 149.91 45.41 C 155.18 47.07 157.57 52.81 161.87 55.95 C 165.94 58.98 169.62 62.62 171.83 67.25 C 174.61 66.56 177.47 66.34 180.32 66.19 C 184.04 70.02 186.94 74.53 189.82 79.00 C 191.30 81.38 192.75 84.03 192.45 86.94 C 192.33 91.13 189.65 94.76 189.40 98.91 C 193.62 105.58 197.30 112.73 198.61 120.62 C 200.59 127.68 197.49 134.96 193.56 140.75 C 192.23 142.43 192.31 144.61 192.13 146.63 C 194.98 147.61 197.88 148.88 200.96 148.66 C 206.63 145.24 211.93 140.64 218.69 139.55 C 221.41 139.22 224.16 139.51 226.88 139.13 C 230.74 137.63 233.46 134.28 237.05 132.30 C 243.40 128.45 251.05 128.78 258.14 127.84 C 258.67 129.41 259.22 130.98 259.73 132.57 C 265.12 132.34 270.46 133.12 275.77 133.91 C 277.04 134.25 278.60 134.37 279.38 135.60 C 282.10 139.16 283.81 143.36 285.68 147.41 C 288.81 147.36 291.95 147.37 295.09 147.37 C 299.28 153.21 296.43 160.50 298.12 166.97 C 299.05 171.65 298.60 176.44 298.31 181.16 C 301.06 182.74 305.70 184.10 305.34 188.06 C 304.68 193.34 304.49 198.70 303.20 203.88 C 302.03 208.56 297.78 211.46 293.81 213.65 C 292.34 214.68 290.21 215.32 289.91 217.35 C 289.01 222.18 288.36 227.14 286.24 231.65 C 284.50 236.25 280.84 240.25 281.06 245.43 C 287.71 246.85 292.56 240.58 299.08 240.52 C 310.18 239.90 321.01 245.45 329.02 252.84 C 334.71 252.30 340.74 248.87 346.21 252.12 C 351.93 255.73 356.96 260.37 361.54 265.32 C 360.77 267.92 359.96 270.50 359.18 273.10 C 363.36 275.69 366.74 279.36 369.23 283.59 C 372.23 288.69 378.32 291.93 379.40 298.11 C 379.20 301.80 375.57 303.99 373.27 306.47 C 374.93 310.46 376.52 314.63 376.59 319.01 C 376.76 320.57 375.72 321.83 374.87 323.01 C 371.85 326.91 368.52 330.56 364.86 333.87 C 365.44 335.54 366.03 337.22 366.61 338.91 C 361.71 344.07 355.60 348.11 348.72 350.02 C 344.92 350.95 340.99 351.14 337.14 351.75 C 333.75 353.94 331.07 357.18 327.30 358.81 C 322.23 361.42 316.44 361.43 311.00 362.66 C 308.90 364.12 307.77 366.51 306.21 368.47 C 302.60 373.63 296.33 376.89 290.01 376.58 C 284.91 376.76 280.32 374.19 276.12 371.60 C 272.78 368.87 268.51 372.51 264.89 370.66 C 259.80 368.77 254.75 366.76 249.65 364.88 C 243.35 362.51 239.34 356.81 234.31 352.66 C 231.29 350.24 228.61 347.44 226.01 344.59 C 222.29 346.87 218.61 349.19 214.89 351.46 C 211.18 348.20 207.07 345.01 205.00 340.38 C 201.22 332.24 200.29 322.53 203.60 314.08 C 204.83 311.20 207.14 309.00 209.12 306.65 C 202.43 303.66 195.24 302.14 188.18 300.29 C 179.50 298.11 170.92 295.53 162.30 293.09 C 162.67 290.16 163.30 287.27 163.88 284.38 C 173.13 286.02 182.12 289.75 191.62 289.47 C 189.93 287.15 188.04 285.01 186.29 282.75 C 183.50 279.05 182.33 274.48 181.10 270.09 C 174.47 271.81 168.42 275.11 162.26 278.00 C 152.23 282.78 142.46 288.15 132.11 292.20 C 130.72 289.79 129.52 287.28 128.35 284.77 C 134.45 280.97 141.12 278.18 147.19 274.32 C 149.50 272.88 152.42 271.16 152.42 268.06 C 152.66 263.06 153.27 257.40 150.00 253.18 C 146.90 249.38 143.70 245.66 140.36 242.07 C 139.86 248.23 141.30 254.26 141.64 260.37 C 138.71 260.52 135.77 260.59 132.84 260.59 C 131.57 252.38 129.77 244.25 128.53 236.03 C 127.33 228.40 126.12 220.76 124.22 213.27 C 120.23 215.82 116.10 218.99 111.08 218.59 C 100.86 219.43 89.60 216.32 83.15 207.90 C 82.04 206.22 80.17 204.55 80.53 202.35 C 82.21 199.16 85.14 196.79 86.72 193.54 C 87.27 191.27 85.25 189.70 84.03 188.11 C 80.08 183.34 76.34 178.39 72.67 173.41 C 69.61 169.44 69.08 164.32 67.70 159.66 C 66.77 155.87 64.95 152.16 65.45 148.16 C 65.56 146.12 66.46 144.17 66.35 142.12 C 64.25 137.28 61.71 132.40 61.62 126.99 C 62.20 120.24 65.91 113.50 72.14 110.43 C 74.42 108.91 77.84 108.11 78.34 104.99 C 79.76 99.54 80.86 93.79 84.25 89.15 C 86.19 86.24 89.22 84.31 91.28 81.52 C 92.39 78.41 92.58 75.06 93.57 71.91 C 95.70 64.74 100.50 58.69 106.29 54.08 C 108.11 54.62 109.88 55.35 111.76 55.63 Z"
     id="path3347" />
  <path
     class="filler"
     d=" M 146.68 48.57 C 149.55 47.65 151.82 50.12 154.00 51.54 C 150.66 54.14 147.26 56.67 143.92 59.28 C 143.00 57.76 142.07 56.25 141.15 54.73 C 142.81 52.53 144.36 50.13 146.68 48.57 Z"
     id="path3349" />
  <path
     class="filler"
     d=" M 126.47 49.46 C 134.54 47.58 141.44 56.71 139.17 64.20 C 136.68 73.62 134.11 83.08 130.32 92.08 C 126.29 88.28 122.37 84.12 117.27 81.76 C 113.04 79.73 108.34 79.10 103.76 78.31 C 105.90 71.75 109.08 65.56 113.03 59.92 C 116.24 55.12 121.15 51.56 126.47 49.46 Z"
     id="path3351" />
  <path
     class="filler"
     d=" M 152.66 57.32 C 156.15 55.00 159.84 58.34 162.51 60.45 C 167.34 64.11 168.98 70.17 170.53 75.74 C 172.07 81.15 171.45 86.85 170.63 92.33 C 167.68 91.16 164.56 88.76 161.25 89.96 C 156.97 91.22 153.99 94.80 150.01 96.60 C 144.89 95.60 140.02 93.56 134.93 92.42 C 136.37 85.45 138.93 78.79 140.76 71.92 C 142.37 65.62 147.30 60.70 152.66 57.32 Z"
     id="path3353" />
  <path
     class="filler"
     d=" M 94.98 79.14 C 96.23 70.46 100.77 61.97 108.68 57.68 C 106.10 65.46 101.92 72.59 98.14 79.83 C 97.08 79.60 96.03 79.37 94.98 79.14 Z"
     id="path3355" />
  <path
     class="filler"
     d=" M 173.55 69.34 C 175.69 69.68 178.34 69.09 179.95 70.88 C 182.90 73.81 185.26 77.31 187.32 80.91 C 189.86 85.14 188.61 90.27 187.32 94.70 C 183.09 93.78 178.77 93.46 174.44 93.50 C 174.89 85.43 174.75 77.34 173.55 69.34 Z"
     id="path3357" />
  <path
     class="filler"
     d=" M 95.32 83.95 C 105.40 80.11 117.85 83.41 124.59 91.88 C 120.00 93.21 115.06 94.16 111.26 97.27 C 106.74 100.62 104.26 105.80 101.68 110.63 C 95.58 107.64 88.83 106.35 82.06 106.35 C 82.08 97.29 86.76 87.73 95.32 83.95 Z"
     id="path3359" />
  <path
     class="filler"
     d=" M 154.07 98.90 C 157.27 96.76 160.29 92.85 164.56 93.49 C 165.98 94.30 168.32 95.72 167.43 97.65 C 165.80 101.94 163.20 105.79 161.07 109.85 C 158.86 106.12 156.48 102.50 154.07 98.90 Z"
     id="path3361" />
  <path
     class="filler"
     d=" M 109.94 103.84 C 114.68 97.31 123.30 94.91 131.04 95.84 C 137.44 96.70 144.09 97.80 149.61 101.37 C 155.31 105.33 159.43 112.36 158.39 119.43 C 157.67 123.67 153.91 126.25 150.77 128.73 C 141.52 135.44 133.83 144.35 129.06 154.77 C 125.47 148.03 121.68 141.22 116.07 135.93 C 111.64 131.55 106.34 128.24 100.91 125.25 C 102.59 117.68 105.35 110.16 109.94 103.84 Z"
     id="path3363" />
  <path
     class="filler"
     d=" M 169.80 101.77 C 172.95 97.73 178.61 96.58 183.41 97.69 C 186.43 99.61 188.17 102.90 190.01 105.86 C 194.45 113.67 197.35 123.15 194.79 132.06 C 192.54 139.77 185.10 143.88 179.56 149.00 C 177.46 144.00 176.07 138.63 172.80 134.22 C 169.88 129.86 166.01 126.25 163.00 121.97 C 161.62 120.25 162.68 117.98 163.15 116.12 C 164.96 111.18 166.52 105.97 169.80 101.77 Z"
     id="path3365" />
  <path
     class="filler"
     d=" M 79.44 110.65 C 86.44 109.67 93.86 110.39 99.98 114.16 C 99.15 117.73 98.04 121.23 96.77 124.66 C 92.10 124.72 85.95 123.03 82.78 127.59 C 79.56 130.99 80.58 135.85 80.51 140.07 C 80.65 143.26 79.66 146.32 78.61 149.28 C 73.56 144.38 67.19 139.75 65.67 132.45 C 64.98 127.64 64.71 122.04 68.06 118.09 C 70.98 114.57 74.87 111.54 79.44 110.65 Z"
     id="path3367" />
  <path
     class="filler"
     d=" M 160.26 126.54 C 160.57 126.52 161.19 126.48 161.50 126.46 C 167.87 132.06 173.46 139.52 174.65 148.12 C 175.67 153.67 171.77 158.22 170.26 163.26 C 169.23 165.55 168.92 168.99 166.01 169.68 C 160.46 171.08 154.44 170.48 149.17 173.03 C 145.77 174.46 143.23 177.36 139.81 178.72 C 136.01 178.16 131.80 175.34 131.79 171.10 C 131.40 166.34 130.84 161.34 132.62 156.78 C 136.27 146.74 143.63 138.48 151.92 131.95 C 154.54 129.93 157.12 127.69 160.26 126.54 Z"
     id="path3369" />
  <path
     class="filler"
     d=" M 86.78 128.86 C 93.19 127.46 100.42 128.33 105.88 132.21 C 118.95 140.94 128.27 155.79 128.62 171.72 C 125.11 170.08 121.50 167.44 117.42 168.53 C 109.46 170.47 101.00 173.19 95.50 179.60 C 93.43 183.05 93.65 187.31 92.75 191.13 C 89.57 189.28 86.22 187.16 84.57 183.73 C 83.20 180.41 83.64 176.71 82.85 173.26 C 82.17 169.49 80.30 165.92 80.52 162.02 C 81.04 154.86 83.61 148.03 84.29 140.91 C 84.29 136.84 82.69 131.62 86.78 128.86 Z"
     id="path3371" />
  <path
     class="filler"
     d=" M 231.70 140.47 C 237.87 133.46 247.64 130.59 256.76 131.67 C 252.10 135.64 246.00 137.03 240.53 139.50 C 237.77 140.82 234.67 140.78 231.70 140.47 Z"
     id="path3373" />
  <path
     class="filler"
     d=" M 239.07 144.18 C 249.75 139.22 261.58 133.53 273.63 136.73 C 279.28 137.43 281.73 144.32 280.46 149.28 C 279.79 154.73 274.85 157.83 270.58 160.44 C 263.99 164.43 257.46 168.56 250.65 172.18 C 249.87 166.91 249.59 161.48 247.67 156.46 C 245.86 151.71 242.13 148.12 239.07 144.18 Z"
     id="path3375" />
  <path
     class="filler"
     d=" M 204.50 150.93 C 209.50 146.17 215.82 142.06 223.00 142.27 C 231.02 141.72 238.16 147.23 242.20 153.75 C 244.99 157.97 246.01 163.01 246.77 167.93 C 242.50 166.49 238.44 164.37 233.96 163.65 C 227.89 162.80 222.17 165.45 216.41 166.87 C 213.77 160.66 209.13 155.71 204.50 150.93 Z"
     id="path3377" />
  <path
     class="filler"
     d=" M 68.44 145.92 C 71.61 147.84 75.11 149.63 77.28 152.76 C 78.01 155.80 77.22 158.99 77.25 162.09 C 76.80 167.18 79.18 171.88 79.66 176.87 C 76.21 173.55 73.43 169.45 72.28 164.76 C 70.74 158.54 68.09 152.45 68.44 145.92 Z"
     id="path3379" />
  <path
     class="filler"
     d=" M 283.69 150.61 C 286.81 150.47 289.94 150.41 293.08 150.37 C 293.71 152.77 294.31 155.18 294.87 157.61 C 290.66 157.06 286.44 156.52 282.20 156.33 C 282.68 154.42 283.19 152.51 283.69 150.61 Z"
     id="path3381" />
  <path
     class="filler"
     d=" M 184.57 151.30 C 190.38 149.35 197.00 150.48 201.99 154.01 C 207.23 157.23 210.65 162.59 212.92 168.19 C 210.14 170.64 207.14 172.83 204.06 174.88 C 200.53 171.83 197.18 167.22 191.99 167.54 C 187.61 167.49 184.72 171.18 182.18 174.22 C 179.91 177.12 176.89 179.28 173.79 181.22 C 173.60 175.66 171.76 170.00 173.38 164.51 C 174.82 158.72 178.97 153.52 184.57 151.30 Z"
     id="path3383" />
  <path
     class="filler"
     d=" M 273.00 163.04 C 277.98 159.94 284.11 160.06 289.73 160.56 C 294.10 161.25 295.27 166.45 295.59 170.16 C 296.52 176.20 293.70 181.82 291.01 187.01 C 288.48 191.80 284.29 195.38 280.24 198.85 C 278.93 196.04 278.08 192.52 275.09 191.00 C 271.16 189.09 266.60 189.95 262.53 188.66 C 258.84 184.60 256.74 179.35 253.32 175.04 C 260.02 171.26 266.47 167.09 273.00 163.04 Z"
     id="path3385" />
  <path
     class="filler"
     d=" M 206.18 177.46 C 214.46 172.83 222.94 166.59 232.92 167.34 C 239.56 167.48 245.02 171.98 249.22 176.72 C 254.73 182.71 260.15 190.12 259.40 198.70 C 258.67 203.96 256.64 210.07 251.35 212.33 C 246.51 214.65 241.07 212.81 235.99 212.72 C 226.42 212.67 216.83 214.65 208.18 218.79 C 210.31 209.48 211.49 199.83 210.03 190.32 C 209.26 185.89 207.63 181.70 206.18 177.46 Z"
     id="path3387" />
  <path
     class="filler"
     d=" M 186.71 174.68 C 188.44 171.62 192.69 170.17 195.64 172.34 C 200.18 175.98 204.16 180.77 205.51 186.55 C 209.59 201.73 206.62 219.08 196.18 231.11 C 194.84 227.90 194.57 223.58 191.18 221.76 C 183.63 217.72 175.16 214.28 166.43 215.45 C 162.49 216.71 159.33 219.57 155.65 221.37 C 155.47 217.75 154.91 214.04 155.73 210.46 C 156.81 207.80 158.79 205.65 160.28 203.22 C 162.96 199.22 164.04 194.11 167.87 190.92 C 174.13 185.50 181.90 181.65 186.71 174.68 Z"
     id="path3389" />
  <path
     class="filler"
     d=" M 117.68 172.35 C 122.13 171.33 125.44 175.12 129.04 177.01 C 135.12 180.42 141.28 184.65 144.33 191.16 C 144.87 194.47 143.03 197.53 141.85 200.50 C 139.70 200.55 137.52 200.27 135.41 200.69 C 131.26 202.90 127.96 207.03 122.97 207.41 C 117.54 207.79 111.35 207.87 106.96 204.13 C 103.92 201.47 101.18 198.47 98.57 195.39 C 95.23 191.90 96.50 186.41 98.36 182.52 C 103.00 176.58 110.47 173.70 117.68 172.35 Z"
     id="path3391" />
  <path
     class="filler"
     d=" M 158.67 188.68 C 161.79 182.99 163.54 176.12 169.14 172.22 C 169.63 176.04 170.83 179.92 170.18 183.78 C 167.62 187.26 163.61 189.46 161.42 193.25 C 159.65 196.34 158.30 199.65 156.47 202.72 C 156.14 197.95 156.25 192.95 158.67 188.68 Z"
     id="path3393" />
  <path
     class="filler"
     d=" M 143.48 181.57 C 148.00 176.37 154.92 174.00 161.70 174.32 C 159.65 178.97 157.22 183.43 155.00 188.00 C 151.23 195.54 153.10 204.24 151.25 212.24 C 147.66 210.74 144.47 208.46 141.84 205.60 C 144.51 202.18 147.79 198.58 147.71 193.94 C 148.38 189.27 144.77 185.74 143.48 181.57 Z"
     id="path3395" />
  <path
     class="filler"
     d=" M 282.57 202.29 C 288.42 197.20 293.23 191.08 296.99 184.31 C 298.54 184.95 300.09 185.60 301.64 186.26 C 301.67 191.97 301.75 197.79 300.12 203.32 C 299.03 207.34 294.99 209.30 291.92 211.64 C 288.83 208.49 285.71 205.38 282.57 202.29 Z"
     id="path3397" />
  <path
     class="filler"
     d=" M 263.30 193.17 C 266.64 193.39 270.21 192.89 273.34 194.33 C 275.89 195.45 275.45 198.53 275.82 200.79 C 271.20 202.19 266.65 203.78 262.23 205.71 C 262.43 201.51 262.71 197.33 263.30 193.17 Z"
     id="path3399" />
  <path
     class="filler"
     d=" M 91.20 193.99 C 97.46 197.83 100.58 205.09 106.97 208.72 C 110.92 210.75 115.48 210.87 119.72 211.97 C 113.59 217.38 104.63 215.95 97.40 214.00 C 91.61 212.59 87.50 208.13 83.77 203.80 C 85.84 200.24 88.40 197.00 91.20 193.99 Z"
     id="path3401" />
  <path
     class="filler"
     d=" M 260.19 211.20 C 264.67 208.90 269.10 206.00 274.19 205.39 C 278.91 204.78 283.59 207.34 286.21 211.18 C 287.71 218.35 285.46 225.71 282.57 232.25 C 280.85 235.88 279.07 239.78 275.76 242.24 C 272.40 243.16 269.33 241.01 266.32 239.88 C 262.55 238.04 258.27 238.39 254.20 238.32 C 254.71 231.21 254.52 224.08 254.73 216.97 C 254.56 213.76 257.97 212.62 260.19 211.20 Z"
     id="path3403" />
  <path
     class="filler"
     d=" M 127.14 210.24 C 130.99 208.98 134.92 207.96 138.88 207.10 C 136.54 213.84 134.94 220.82 132.20 227.42 C 134.37 227.04 136.53 226.62 138.71 226.27 C 137.53 229.75 134.73 233.01 135.39 236.88 C 136.49 244.16 138.50 251.52 137.18 258.92 C 134.42 254.03 133.74 248.41 132.82 242.98 C 131.27 232.00 128.93 221.17 127.14 210.24 Z"
     id="path3405" />
  <path
     fill="#ffffff"
     d=" M 139.67 212.98 C 140.30 212.50 141.55 211.53 142.18 211.04 C 145.64 212.74 148.87 214.86 151.77 217.40 C 147.56 217.77 143.34 217.72 139.12 217.74 C 139.30 216.15 139.48 214.56 139.67 212.98 Z"
     id="path3407" />
  <path
     class="filler"
     d=" M 214.79 219.79 C 226.45 215.55 239.27 215.83 251.39 217.62 C 251.44 224.19 251.85 230.94 249.81 237.28 C 248.70 240.99 245.11 243.01 242.14 245.09 C 238.03 248.09 232.79 248.27 228.06 249.68 C 225.67 250.20 223.06 251.36 220.67 250.25 C 217.09 248.71 213.88 246.34 210.10 245.26 C 206.97 244.29 203.65 244.51 200.42 244.48 C 199.22 241.08 195.98 237.03 198.54 233.53 C 202.59 227.62 207.89 222.22 214.79 219.79 Z"
     id="path3409" />
  <path
     class="filler"
     d=" M 158.80 226.12 C 160.45 222.71 163.79 220.28 167.18 218.76 C 174.46 217.91 181.49 221.04 187.93 224.08 C 190.73 225.10 191.35 228.19 192.03 230.73 C 193.87 238.04 197.19 245.32 196.11 253.02 C 195.73 257.33 191.62 260.97 187.29 260.65 C 185.02 260.79 184.33 258.05 182.99 256.71 C 177.75 256.49 171.78 257.22 167.56 253.41 C 163.56 249.83 158.69 245.82 158.56 239.98 C 158.39 235.37 158.14 230.70 158.80 226.12 Z"
     id="path3411" />
  <path
     class="filler"
     d=" M 141.68 224.82 C 145.91 224.13 150.16 223.42 154.47 223.38 C 154.91 229.71 154.07 236.13 155.28 242.40 C 156.17 247.87 160.71 251.57 163.07 256.38 C 159.33 254.45 156.62 251.21 153.71 248.28 C 151.05 245.55 146.62 245.08 144.65 241.62 C 141.29 236.69 141.26 230.54 141.68 224.82 Z"
     id="path3413" />
  <path
     class="filler"
     d=" M 242.23 250.81 C 244.20 246.07 249.47 243.38 254.22 242.12 C 258.31 240.83 262.50 242.22 266.33 243.67 C 260.70 248.47 254.51 252.55 248.67 257.09 C 246.40 255.14 244.01 253.25 242.23 250.81 Z"
     id="path3415" />
  <path
     class="filler"
     d=" M 278.03 258.08 C 284.25 251.81 290.68 244.09 300.21 243.53 C 309.02 243.30 317.35 247.64 324.28 252.75 C 326.71 254.73 329.63 256.77 330.35 260.03 C 330.39 265.44 327.29 271.05 322.16 273.18 C 317.77 275.07 313.13 276.33 308.46 277.33 C 306.80 277.57 304.73 278.02 303.52 276.51 C 299.01 272.31 295.14 267.39 290.07 263.80 C 286.42 261.21 282.16 259.69 278.03 258.08 Z"
     id="path3417" />
  <path
     class="filler"
     d=" M 268.46 247.51 C 272.68 245.20 277.62 246.67 281.94 247.86 C 279.20 251.21 276.90 255.67 272.69 257.29 C 265.54 257.75 258.44 258.73 251.51 260.55 C 256.30 255.21 262.12 250.83 268.46 247.51 Z"
     id="path3419" />
  <path
     class="filler"
     d=" M 199.75 248.43 C 202.99 248.38 206.28 248.12 209.49 248.74 C 212.94 249.62 215.87 251.76 218.81 253.68 C 214.11 257.66 210.64 262.71 207.04 267.63 C 201.03 272.45 199.53 280.51 194.26 285.97 C 191.47 283.72 188.63 281.34 187.00 278.07 C 184.80 274.01 184.33 269.35 184.10 264.83 C 188.89 264.43 194.20 263.42 197.42 259.50 C 199.90 256.37 199.53 252.17 199.75 248.43 Z"
     id="path3421" />
  <path
     class="filler"
     d=" M 213.52 264.52 C 218.69 258.15 225.77 252.84 234.06 251.62 C 238.00 250.85 240.48 254.65 243.03 256.96 C 246.07 260.41 250.06 263.18 252.21 267.32 C 252.40 276.02 249.28 285.25 242.13 290.69 C 238.97 288.36 235.95 285.39 231.96 284.65 C 226.91 283.97 222.42 286.86 218.38 289.46 C 215.06 285.58 211.80 281.20 211.39 275.92 C 211.12 272.07 210.82 267.66 213.52 264.52 Z"
     id="path3423" />
  <path
     class="filler"
     d=" M 333.61 254.65 C 337.95 254.52 342.88 253.32 346.65 256.17 C 350.42 258.84 354.18 261.73 356.92 265.49 C 358.14 267.02 357.69 269.01 356.50 270.40 C 354.00 271.09 351.51 269.92 349.07 269.48 C 343.94 268.12 338.59 268.38 333.34 268.29 C 333.52 263.75 333.61 259.20 333.61 254.65 Z"
     id="path3425" />
  <path
     class="filler"
     d=" M 155.56 255.65 C 156.92 257.51 158.52 259.28 159.33 261.48 C 159.89 265.36 159.35 269.31 159.83 273.20 C 163.61 268.90 166.37 263.46 171.28 260.27 C 175.00 260.48 177.99 263.14 181.01 265.04 C 177.59 267.49 173.82 269.36 169.97 271.04 C 159.91 275.44 150.20 280.59 140.31 285.35 C 137.78 286.58 135.05 287.31 132.30 287.83 C 136.31 282.55 142.83 280.39 148.58 277.60 C 150.44 276.55 153.13 276.15 154.00 273.94 C 156.45 268.15 155.33 261.74 155.56 255.65 Z"
     id="path3427" />
  <path
     fill="#ffffff"
     d=" M 162.16 258.67 C 163.65 258.56 165.14 258.46 166.63 258.36 C 166.58 259.33 166.54 260.31 166.49 261.28 C 165.58 261.78 164.67 262.29 163.76 262.81 C 163.23 261.42 162.69 260.05 162.16 258.67 Z"
     id="path3429" />
  <path
     class="filler"
     d=" M 256.49 262.80 C 265.46 261.08 275.30 260.12 283.78 264.23 C 290.31 267.25 295.05 272.85 299.86 278.00 C 291.34 289.61 279.81 300.01 265.55 303.65 C 260.81 305.12 255.92 303.52 251.23 302.65 C 246.96 302.06 245.99 297.15 244.17 294.00 C 247.12 291.01 250.40 288.14 252.17 284.24 C 255.48 277.58 255.45 270.00 256.49 262.80 Z"
     id="path3431" />
  <path
     class="filler"
     d=" M 334.04 271.53 C 343.76 271.27 353.90 273.30 361.80 279.21 C 364.94 282.38 368.18 286.30 368.45 290.92 C 365.22 297.66 358.26 302.51 350.90 303.65 C 344.12 304.85 337.40 306.34 330.67 307.80 C 329.81 302.40 328.90 296.99 327.36 291.73 C 330.38 288.59 333.85 285.61 335.50 281.46 C 337.10 278.15 334.83 274.74 334.04 271.53 Z"
     id="path3433" />
  <path
     class="filler"
     d=" M 315.71 279.51 C 320.48 277.64 325.24 275.73 330.02 273.88 C 330.92 275.56 331.86 277.24 332.52 279.04 C 331.43 282.62 328.49 285.19 326.10 287.92 C 322.68 285.06 319.23 282.24 315.71 279.51 Z"
     id="path3435" />
  <path
     class="filler"
     d=" M 207.77 277.81 C 208.88 280.69 209.94 283.58 211.02 286.48 C 209.44 286.41 207.85 286.40 206.27 286.47 C 206.74 283.58 207.25 280.69 207.77 277.81 Z"
     id="path3437" />
  <path
     class="filler"
     d=" M 189.04 293.59 C 195.27 291.36 199.21 285.37 203.71 280.78 C 203.31 283.26 203.26 285.91 202.09 288.19 C 200.17 291.03 197.44 293.18 195.17 295.73 C 202.33 295.68 209.40 294.30 216.26 292.35 C 215.24 296.36 213.85 300.28 211.75 303.86 C 201.79 300.53 191.59 297.99 181.43 295.34 C 175.76 293.81 169.98 292.47 164.75 289.72 C 173.09 287.74 181.02 292.12 189.04 293.59 Z"
     id="path3439" />
  <path
     class="filler"
     d=" M 303.85 281.86 C 309.64 280.24 315.57 283.38 319.59 287.40 C 325.60 293.15 326.61 302.08 326.60 309.98 C 326.77 316.53 325.29 323.65 320.22 328.21 C 313.29 334.58 303.61 336.69 294.56 337.97 C 291.33 330.78 287.71 323.54 281.98 318.00 C 277.61 313.85 272.60 310.47 267.69 307.01 C 278.07 303.83 287.09 297.34 294.52 289.53 C 297.40 286.75 299.86 283.10 303.85 281.86 Z"
     id="path3441" />
  <path
     class="filler"
     d=" M 222.68 290.94 C 226.46 288.70 232.06 286.67 235.58 290.43 C 242.21 295.77 244.82 304.06 248.76 311.27 C 250.19 313.55 249.68 316.32 248.68 318.65 C 246.26 324.84 243.12 331.37 237.33 335.06 C 233.91 336.03 230.11 336.02 226.65 335.24 C 222.97 332.63 220.03 329.09 217.19 325.63 C 213.21 321.05 214.25 314.56 214.59 309.00 C 215.03 303.28 220.54 300.32 223.17 295.76 C 223.30 294.14 222.87 292.54 222.68 290.94 Z"
     id="path3443" />
  <path
     class="filler"
     d=" M 364.35 301.57 C 367.41 298.55 370.39 295.46 373.37 292.36 C 374.34 294.58 376.19 296.86 375.48 299.42 C 374.01 301.73 371.73 303.58 369.09 304.33 C 367.42 303.58 365.89 302.54 364.35 301.57 Z"
     id="path3445" />
  <path
     class="filler"
     d=" M 330.76 311.67 C 340.07 309.23 349.54 307.35 359.04 305.78 C 363.65 304.85 368.25 307.39 371.20 310.80 C 373.30 313.94 374.55 318.57 371.77 321.72 C 365.37 332.40 352.78 336.33 341.63 339.99 C 341.44 334.87 341.18 329.61 339.09 324.85 C 336.99 320.06 333.57 316.04 330.76 311.67 Z"
     id="path3447" />
  <path
     class="filler"
     d=" M 252.00 306.20 C 263.86 307.96 274.72 314.52 282.25 323.79 C 286.73 329.20 291.00 335.65 290.71 342.97 C 290.52 345.84 291.22 349.12 289.56 351.66 C 287.49 354.56 283.51 353.48 280.49 353.49 C 272.61 352.62 264.82 354.47 256.96 354.59 C 252.28 354.87 248.26 352.09 243.83 351.09 C 240.74 350.26 237.40 350.08 234.59 348.43 C 231.50 346.33 229.53 343.05 227.76 339.85 C 231.60 339.38 235.67 339.88 239.31 338.39 C 246.31 333.67 250.00 325.65 252.86 317.98 C 254.46 314.11 252.58 310.07 252.00 306.20 Z"
     id="path3449" />
  <path
     class="filler"
     d=" M 205.29 328.86 C 205.14 322.56 204.41 314.95 210.20 310.75 C 210.65 314.77 210.02 318.99 211.42 322.86 C 214.12 328.98 219.80 332.94 223.87 338.05 C 225.25 339.54 224.44 341.79 222.87 342.77 C 220.46 344.60 217.62 347.27 214.37 346.52 C 208.44 342.85 205.40 335.66 205.29 328.86 Z"
     id="path3451" />
  <path
     class="filler"
     d=" M 330.52 317.48 C 334.15 322.27 337.40 327.76 337.58 333.94 C 338.10 340.33 336.75 347.36 331.95 351.95 C 326.60 357.19 318.82 358.87 311.55 358.79 C 311.76 352.05 311.84 345.16 309.42 338.75 C 314.12 336.51 319.17 334.65 322.95 330.94 C 326.79 327.33 328.29 322.10 330.52 317.48 Z"
     id="path3453" />
  <path
     class="filler"
     d=" M 351.40 340.33 C 355.03 338.87 358.74 337.54 362.64 337.00 C 357.14 344.23 347.98 348.86 338.81 347.52 C 341.50 343.00 346.93 342.20 351.40 340.33 Z"
     id="path3455" />
  <path
     class="filler"
     d=" M 294.60 341.91 C 298.27 341.17 301.96 340.46 305.70 340.18 C 308.87 347.79 309.78 357.00 305.39 364.32 C 302.48 368.58 298.29 372.59 292.99 373.39 C 286.75 374.15 280.19 371.72 275.95 367.07 C 273.18 364.17 270.88 360.86 268.67 357.53 C 273.46 356.16 278.40 356.64 283.23 357.48 C 287.62 358.35 291.78 355.30 293.77 351.60 C 294.89 348.51 294.39 345.13 294.60 341.91 Z"
     id="path3457" />
  <path
     class="filler"
     d=" M 241.25 354.27 C 245.04 355.06 248.58 356.66 252.28 357.74 C 256.24 358.92 260.43 357.94 264.46 358.59 C 267.53 360.92 269.04 364.63 270.70 367.98 C 263.92 367.83 257.87 364.55 251.62 362.31 C 247.42 360.75 244.09 357.63 241.25 354.27 Z"
     id="path3459" />
</svg>
