<?xml version="1.0" standalone="no"?>
<!DOCTYPE svg PUBLIC "-//W3C//DTD SVG 20010904//EN"
 "http://www.w3.org/TR/2001/REC-SVG-20010904/DTD/svg10.dtd">
<svg version="1.0" xmlns="http://www.w3.org/2000/svg"
 width="424.000000pt" height="436.000000pt" viewBox="0 0 424.000000 436.000000"
 preserveAspectRatio="xMidYMid meet">
<metadata>
Created by potrace 1.10, written by Peter Selinger 2001-2011
</metadata>
<g transform="translate(0.000000,436.000000) scale(0.100000,-0.100000)"
fill="#000000" stroke="none">
<path d="M2641 3813 c-56 -53 -101 -103 -101 -110 0 -9 -15 -12 -52 -10 l-51
2 -54 -78 c-59 -86 -66 -127 -39 -205 13 -37 13 -42 -8 -73 -39 -59 -68 -142
-73 -210 -5 -58 -2 -74 20 -120 15 -30 32 -61 38 -70 18 -25 4 -47 -38 -58
-33 -9 -42 -8 -65 9 -65 48 -121 72 -186 79 -56 6 -75 13 -115 44 -53 40 -92
54 -184 63 -60 6 -63 6 -72 -19 -9 -22 -15 -25 -66 -26 -117 -1 -156 -24 -186
-109 -10 -30 -14 -32 -60 -32 -48 0 -51 -2 -65 -36 -8 -19 -15 -59 -14 -87 0
-29 -1 -90 -4 -135 -4 -82 -4 -84 -36 -104 l-33 -19 7 -92 c8 -111 23 -140 93
-186 47 -30 53 -37 59 -80 7 -54 59 -184 80 -202 20 -17 17 -28 -11 -39 -19
-7 -35 -4 -76 17 -75 40 -161 38 -252 -5 -38 -17 -85 -45 -106 -61 -34 -27
-42 -29 -72 -21 -19 6 -54 10 -78 10 -47 0 -74 -16 -159 -94 -42 -38 -43 -42
-37 -84 6 -39 4 -45 -20 -64 -15 -12 -43 -45 -61 -74 -19 -30 -43 -58 -54 -64
-24 -13 -50 -61 -50 -93 0 -13 13 -36 29 -51 27 -26 28 -29 16 -64 -34 -99
-33 -105 36 -177 57 -60 61 -67 51 -90 -10 -22 -8 -28 33 -62 58 -48 139 -82
197 -83 38 0 54 -6 82 -30 46 -41 116 -70 182 -77 45 -5 59 -11 72 -31 39 -59
90 -100 141 -112 58 -14 97 -7 166 28 35 18 63 25 95 23 28 -1 60 5 85 18 22
10 59 24 82 30 45 12 125 73 212 162 l50 51 51 -31 c28 -17 55 -31 60 -31 19
0 82 64 102 104 16 29 23 66 26 127 5 95 -7 150 -41 186 -11 13 -17 26 -14 29
4 4 102 34 219 66 117 32 219 65 226 72 16 16 6 65 -15 73 -8 3 -47 -2 -86
-11 -86 -21 -167 -31 -167 -21 0 4 13 24 29 44 15 20 34 54 42 76 7 22 17 44
21 50 11 13 56 -5 275 -111 106 -52 197 -94 202 -94 14 0 35 30 38 55 3 19
-13 31 -106 84 -63 35 -112 69 -116 80 -9 28 -9 104 0 132 8 25 90 131 106
137 12 5 11 -18 -2 -97 -11 -72 -6 -81 48 -81 22 0 33 6 37 18 4 14 50 267 72
405 8 45 19 54 42 35 58 -49 189 -50 287 -2 51 25 125 99 125 124 0 4 -16 27
-35 51 -39 49 -42 61 -19 80 17 14 111 137 136 179 26 42 69 211 67 265 -1 28
5 68 14 90 18 45 22 121 8 158 -15 38 -70 96 -112 117 -32 17 -39 26 -48 70
-14 66 -43 122 -90 173 -27 30 -40 55 -45 85 -16 105 -120 237 -168 215 -18
-8 -34 -1 -92 44 -39 29 -78 53 -86 53 -8 0 -42 -12 -75 -25 l-59 -25 -26 25
c-46 44 -69 35 -179 -72z m379 46 c71 -43 118 -100 174 -211 34 -70 30 -88
-21 -88 -49 0 -119 -34 -170 -83 -26 -24 -47 -37 -57 -34 -23 9 -95 246 -95
312 0 47 32 97 70 111 48 18 59 17 99 -7z m-240 -104 c21 -20 42 -46 48 -58
22 -46 83 -251 78 -264 -3 -7 -17 -13 -30 -13 -14 0 -48 -9 -76 -20 l-52 -20
-36 28 c-62 47 -88 55 -127 36 -19 -9 -39 -13 -44 -9 -19 11 -12 137 10 211
25 80 30 87 84 126 52 38 94 33 145 -17z m-280 -85 c16 -9 17 -21 14 -132 l-4
-123 -53 0 c-28 0 -58 -4 -65 -8 -18 -12 -45 58 -39 100 8 50 95 170 125 173
2 0 12 -4 22 -10z m797 -141 c46 -17 102 -79 123 -136 25 -68 26 -103 3 -104
-63 -3 -113 -13 -147 -29 -22 -11 -42 -17 -46 -15 -3 2 -16 24 -28 48 -32 64
-89 112 -151 127 -38 9 -51 16 -49 28 4 20 72 68 113 81 42 13 148 13 182 0z
m-609 -130 c12 -8 22 -22 22 -31 0 -15 -66 -118 -75 -118 -2 0 -19 31 -38 68
-26 51 -32 73 -25 86 15 26 50 36 73 22 11 -7 30 -19 43 -27z m412 -22 c43
-24 67 -52 90 -107 6 -14 17 -38 25 -55 15 -35 35 -94 35 -106 0 -4 -24 -21
-54 -39 -65 -36 -155 -131 -198 -207 -17 -29 -35 -52 -41 -50 -6 2 -24 28 -40
58 -33 62 -83 117 -179 195 -73 60 -85 85 -74 159 9 55 69 126 128 150 108 43
235 44 308 2z m-560 -16 c27 -22 43 -48 69 -119 38 -104 44 -83 -55 -199 -36
-43 -57 -79 -69 -122 -11 -33 -22 -61 -26 -61 -3 0 -38 29 -75 64 -80 74 -111
138 -100 208 16 99 87 240 130 259 33 13 88 0 126 -30z m958 -115 c45 -23 89
-72 102 -112 10 -29 10 -49 0 -92 -10 -46 -22 -66 -68 -114 -30 -32 -61 -58
-68 -58 -19 0 -27 36 -26 111 1 62 0 67 -33 99 -30 29 -39 32 -73 28 -47 -7
-57 -2 -71 35 -26 68 -3 104 76 116 65 11 125 6 161 -13z m-805 -167 c25 -16
81 -68 125 -114 98 -103 128 -171 124 -280 -3 -58 -7 -73 -25 -87 -53 -41 -60
-42 -115 -5 -37 26 -70 38 -124 47 -98 16 -128 28 -128 52 0 11 -14 48 -31 83
-35 72 -33 119 7 197 19 36 102 138 114 138 3 0 27 -14 53 -31z m707 -16 c17
-22 21 -37 17 -68 -3 -23 4 -86 17 -151 21 -101 21 -115 9 -160 -8 -27 -17
-74 -20 -104 -5 -60 -37 -114 -74 -125 -28 -9 -36 1 -44 55 -8 63 -53 98 -177
141 -69 23 -101 24 -118 4 -7 -8 -21 -15 -31 -15 -38 0 -15 124 41 225 27 49
122 148 173 182 39 24 95 40 154 42 23 1 37 -6 53 -26z m-1725 -64 c22 -5 49
-14 60 -19 11 -5 42 -16 68 -26 27 -10 51 -23 54 -31 3 -7 -11 -32 -30 -56
-41 -50 -67 -121 -67 -182 0 -53 -12 -63 -48 -39 -15 10 -36 23 -47 29 -215
118 -265 183 -213 278 20 36 29 43 63 48 65 10 118 10 160 -2z m441 -75 c17
-8 46 -27 64 -43 l34 -28 -53 -63 c-29 -35 -57 -74 -62 -88 -7 -19 -14 -23
-32 -17 -103 33 -130 37 -176 25 -25 -6 -56 -18 -69 -26 -33 -21 -45 -8 -39
40 14 94 98 196 183 219 29 8 115 -3 150 -19z m1456 -41 c2 -10 -2 -40 -10
-68 -7 -27 -18 -67 -23 -88 -12 -48 -42 -109 -64 -127 -30 -25 -34 6 -12 84
10 36 11 61 4 94 -9 43 -8 45 29 83 41 42 70 50 76 22z m-1137 -43 c34 -21 61
-55 82 -103 12 -28 12 -171 -1 -184 -13 -14 -76 28 -101 66 -41 65 -113 72
-166 15 -12 -13 -28 -24 -35 -24 -22 0 -83 41 -89 60 -13 42 56 135 130 173
44 24 140 22 180 -3z m-925 -99 c63 -31 210 -124 210 -133 0 -5 -8 -21 -18
-36 -11 -15 -31 -45 -45 -68 -24 -39 -28 -41 -87 -47 -64 -5 -100 -26 -100
-57 0 -10 -6 -23 -14 -29 -11 -9 -24 -1 -65 41 -65 67 -115 180 -106 236 14
80 25 101 58 111 42 12 123 3 167 -18z m485 -55 c66 -17 191 -82 199 -102 4
-9 1 -22 -5 -30 -34 -42 -48 -211 -25 -308 18 -76 13 -90 -22 -72 -57 29 -112
39 -259 45 -142 6 -153 8 -177 30 -58 54 -71 160 -30 246 28 61 152 180 200
193 54 14 62 14 119 -2z m387 -53 c9 -10 17 -25 20 -32 2 -8 47 -47 99 -85 74
-56 99 -81 119 -121 14 -27 38 -70 54 -93 31 -46 42 -111 25 -144 -14 -25 -29
-22 -72 13 -36 30 -42 31 -101 27 -44 -4 -84 -16 -132 -39 -58 -29 -71 -39
-80 -69 -18 -55 -38 -49 -79 24 -46 83 -69 187 -61 286 7 106 20 141 72 199
40 44 51 51 83 51 24 0 44 -7 53 -17z m712 8 c3 -5 22 -12 42 -15 27 -6 142
-68 144 -79 1 -1 3 -29 6 -62 l6 -60 -65 -70 -64 -70 -89 -3 -89 -4 -53 42
c-28 23 -52 37 -52 31 0 -18 -36 -12 -54 8 -10 11 -20 38 -23 60 -6 40 -4 44
53 99 100 96 217 157 238 123z m-502 -18 c34 -39 95 -180 102 -236 4 -33 4
-57 -2 -57 -15 0 -39 33 -53 73 -8 23 -31 53 -56 73 -37 31 -43 41 -43 74 0
43 15 90 28 90 5 0 16 -8 24 -17z m106 -5 c65 -16 122 -55 122 -83 0 -12 -9
-34 -20 -48 -11 -14 -20 -39 -20 -57 0 -37 23 -85 45 -93 28 -12 16 -43 -31
-77 -45 -32 -47 -32 -60 -15 -8 10 -15 44 -15 74 -2 97 -8 121 -49 204 -36 71
-44 107 -25 107 3 0 27 -5 53 -12z m-1391 -128 c7 -14 37 -53 68 -87 30 -34
55 -64 55 -67 0 -3 -21 -26 -46 -51 -51 -52 -63 -52 -112 -2 -27 28 -33 44
-42 111 -10 67 -9 81 5 102 20 32 55 29 72 -6z m326 -124 c4 -38 6 -70 4 -72
-6 -6 -147 51 -151 62 -2 5 -2 22 1 37 6 31 41 47 98 44 l40 -2 8 -69z m1751
14 c20 -22 36 -44 36 -48 0 -18 -66 -84 -103 -104 -57 -30 -205 -38 -242 -14
-42 27 -31 43 31 48 55 5 58 7 132 81 41 43 83 77 92 77 10 0 34 -18 54 -40z
m-1756 -112 c35 -18 67 -37 72 -43 4 -5 10 -65 13 -132 l5 -123 -49 0 c-30 0
-65 -8 -89 -20 -48 -25 -92 -26 -113 -2 -50 55 -103 224 -91 290 5 23 15 37
38 49 72 38 109 34 214 -19z m1344 -6 c13 -10 11 -30 -12 -159 -15 -82 -33
-186 -41 -232 -13 -80 -28 -106 -50 -84 -10 10 6 163 22 201 7 18 5 29 -11 49
-11 14 -20 37 -20 50 0 22 3 24 26 19 23 -6 25 -4 19 11 -4 10 -11 38 -16 62
-5 25 -16 55 -25 68 -24 38 -5 53 50 39 24 -6 50 -17 58 -24z m-919 -78 c60
-15 148 -59 156 -78 2 -5 19 -26 37 -46 35 -38 40 -66 25 -120 -6 -22 -14 -26
-67 -32 -39 -4 -80 -18 -118 -38 l-58 -32 -50 16 c-28 9 -61 16 -75 16 -30 0
-57 13 -109 56 -31 25 -44 45 -53 78 -15 59 -14 169 1 184 18 18 236 16 311
-4z m576 -40 l41 -36 0 -93 c0 -90 -1 -94 -32 -132 -57 -69 -95 -93 -149 -93
-57 0 -79 -7 -73 -25 3 -7 -2 -15 -11 -18 -29 -12 -75 5 -101 36 -24 29 -26
37 -21 97 5 58 36 182 56 219 8 17 19 23 81 50 60 25 67 27 122 30 41 2 52 -2
87 -35z m185 -24 c24 -9 26 -15 26 -65 0 -40 -7 -70 -25 -105 -24 -47 -33 -54
-62 -51 -6 1 -31 -21 -55 -49 -28 -32 -51 -50 -65 -50 -30 0 -29 17 1 41 44
34 57 76 57 173 0 51 4 95 10 103 13 15 77 17 113 3z m-1078 -180 c30 -12 84
-55 98 -77 11 -20 -40 -73 -70 -73 -12 0 -50 23 -85 51 -35 28 -72 55 -81 60
-58 31 67 66 138 39z m-411 -29 c76 -35 170 -151 123 -151 -31 0 -92 -42 -163
-111 l-80 -78 -88 22 c-56 14 -99 32 -122 50 -38 30 -61 90 -51 130 10 40 144
131 221 150 47 11 122 6 160 -12z m250 -25 c59 -28 155 -104 155 -123 0 -15
-2 -15 -58 -3 -24 6 -71 12 -104 14 -54 4 -65 9 -99 42 -48 47 -50 70 -6 83
48 14 58 13 112 -13z m669 -2 c11 -4 16 -19 16 -43 0 -20 7 -44 15 -54 27 -37
79 -67 113 -67 l34 0 -7 -47 c-12 -86 -68 -173 -111 -173 -14 0 -52 57 -75
115 -11 27 -24 41 -38 43 -14 2 -27 17 -37 40 -8 20 -34 56 -57 80 -41 42 -41
42 -22 61 35 34 131 60 169 45z m-284 -44 c58 -17 140 -81 166 -130 36 -67 29
-126 -24 -212 -27 -43 -41 -46 -81 -17 -42 31 -105 28 -141 -6 -37 -36 -68
-29 -104 24 -27 39 -56 125 -56 170 0 15 25 50 73 102 78 84 93 90 167 69z
m-1058 -21 c21 -9 23 -17 24 -80 l2 -69 -59 0 c-70 0 -61 1 -124 -17 -47 -14
-50 -14 -66 6 -24 30 -14 53 42 101 82 69 128 84 181 59z m1801 -66 c-6 -69
11 -142 35 -149 22 -7 156 -75 179 -92 15 -11 16 -14 2 -27 -14 -14 -28 -9
-140 46 -68 34 -171 84 -229 110 -124 57 -134 73 -65 107 25 12 47 22 49 22
10 0 96 -96 96 -107 0 -6 5 -15 11 -19 9 -5 10 6 5 39 -7 47 1 74 32 110 25
28 30 20 25 -40z m-1037 -14 c30 -9 32 -13 37 -72 3 -34 8 -72 11 -85 9 -40
50 -114 73 -132 28 -21 29 -38 6 -82 -10 -18 -19 -34 -19 -36 -3 -6 -93 -17
-144 -16 -86 0 -190 56 -296 158 -46 44 -84 89 -84 99 0 29 90 116 147 144 86
40 182 48 269 22z m-746 -103 c0 -8 -4 -18 -10 -21 -5 -3 -10 -21 -10 -39 0
-25 11 -45 41 -80 l42 -47 -12 -72 c-14 -79 -24 -103 -40 -100 -6 2 -64 13
-129 26 -117 24 -152 38 -204 86 -45 40 -46 79 -5 144 27 42 44 58 74 67 21 7
43 16 48 20 18 14 79 27 143 29 49 2 62 -1 62 -13z m95 -32 c11 -7 35 -15 53
-19 17 -4 32 -12 32 -18 0 -15 -96 -87 -115 -87 -19 0 -65 69 -65 97 0 12 10
29 21 37 22 15 38 13 74 -10z m1235 -76 c28 -47 100 -101 125 -93 11 3 62 16
112 29 79 20 95 21 105 9 17 -21 3 -29 -112 -61 -58 -16 -158 -44 -222 -62
-65 -18 -124 -30 -132 -27 -8 3 -22 29 -31 57 -21 62 -11 75 41 54 18 -8 51
-14 72 -14 21 0 43 -5 49 -11 6 -6 13 -7 16 -2 3 5 -10 24 -28 42 -28 26 -35
40 -35 72 0 47 14 50 40 7z m-921 -70 c95 -90 166 -138 224 -152 15 -3 27 -11
27 -16 0 -5 -25 -25 -55 -46 -69 -45 -158 -149 -191 -221 -29 -63 -25 -62
-164 -20 -93 28 -132 56 -162 117 -24 47 -28 66 -28 140 0 47 5 103 11 125 26
96 106 165 192 165 46 0 50 -3 146 -92z m692 -4 c17 -18 19 -27 11 -37 -9 -11
-4 -21 24 -48 44 -42 55 -68 59 -143 5 -75 -8 -105 -78 -180 l-55 -58 -57 5
c-53 5 -61 9 -96 49 -21 23 -43 58 -50 76 -6 19 -17 46 -25 60 -16 32 -18 58
-4 67 6 4 24 36 40 71 33 73 89 144 126 160 35 15 79 6 105 -22z m-1224 -170
c70 -14 134 -32 142 -39 12 -11 8 -20 -22 -57 -44 -54 -66 -109 -69 -173 -2
-33 -8 -52 -18 -56 -15 -6 -99 25 -181 67 -61 30 -139 117 -139 154 0 72 52
127 122 129 20 1 94 -11 165 -25z m940 -25 c-21 -38 -21 -44 3 -94 11 -22 19
-45 20 -52 0 -15 52 -93 77 -115 16 -14 67 -27 116 -28 27 0 20 -37 -15 -76
-27 -29 -43 -37 -88 -43 -30 -5 -70 -16 -89 -26 -38 -20 -138 -22 -241 -6 -32
5 -62 5 -72 0 -27 -15 -64 -10 -89 10 -21 17 -24 27 -22 88 1 45 8 84 22 114
23 51 137 180 179 203 90 49 190 80 207 65 6 -7 4 -20 -8 -40z m447 -32 c23
-34 31 -128 16 -197 -10 -45 -23 -72 -52 -105 -22 -25 -45 -45 -51 -45 -17 0
-87 51 -98 72 -8 15 -1 28 38 71 102 111 99 104 103 215 0 20 28 14 44 -11z
m-1209 -84 c23 -62 76 -117 134 -138 25 -10 49 -20 53 -24 4 -3 1 -24 -7 -46
-8 -22 -14 -68 -15 -103 0 -77 -8 -81 -95 -57 -74 20 -138 69 -161 124 -21 48
-20 155 1 206 17 39 52 85 65 85 4 0 15 -21 25 -47z m294 -187 c36 -8 45 -22
43 -62 -2 -29 4 -42 32 -70 l35 -35 83 6 c94 7 121 -2 97 -32 -67 -86 -89
-107 -127 -124 -69 -30 -132 -25 -184 14 -66 49 -89 105 -85 199 4 86 23 121
61 113 12 -2 32 -6 45 -9z m545 -175 c-43 -40 -232 -118 -259 -107 -23 9 -18
34 17 77 31 39 32 39 99 37 37 -1 74 3 81 9 17 15 80 31 92 25 5 -3 -8 -21
-30 -41z"/>
</g>
</svg>
