<?xml version="1.0" standalone="no"?>
<!DOCTYPE svg PUBLIC "-//W3C//DTD SVG 20010904//EN"
 "http://www.w3.org/TR/2001/REC-SVG-20010904/DTD/svg10.dtd">
<svg version="1.0" xmlns="http://www.w3.org/2000/svg"
 width="424.000000pt" height="436.000000pt" viewBox="0 0 424.000000 436.000000"
 preserveAspectRatio="xMidYMid meet">
<metadata>
Created by potrace 1.10, written by Peter Selinger 2001-2011
</metadata>
<g transform="translate(0.000000,436.000000) scale(0.100000,-0.100000)"
fill="#000000" stroke="#ff0000">
<path d="M1184 3857 c-58 -45 -74 -52 -92 -44 -48 22 -152 -110 -168 -215 -5
-30 -18 -55 -45 -85 -47 -51 -76 -107 -90 -173 -9 -44 -16 -53 -49 -70 -50
-25 -108 -94 -116 -138 -9 -48 2 -129 23 -166 15 -25 17 -38 9 -67 -7 -30 -3
-57 21 -142 26 -89 39 -117 92 -189 34 -47 70 -93 81 -103 27 -24 25 -33 -15
-84 -19 -24 -35 -47 -35 -51 0 -4 15 -27 34 -51 80 -106 291 -145 378 -71 23
19 34 10 42 -35 22 -138 68 -391 72 -405 4 -12 15 -18 37 -18 56 0 61 9 48 82
-20 118 -16 121 53 37 45 -57 66 -112 60 -159 -9 -65 -13 -69 -124 -131 -94
-53 -110 -65 -107 -84 3 -25 24 -55 38 -55 5 0 93 41 197 91 280 136 284 137
295 82 3 -16 22 -53 41 -82 20 -29 36 -55 36 -58 0 -9 -88 4 -167 23 -39 9
-78 14 -86 11 -19 -7 -29 -59 -14 -74 7 -7 108 -39 225 -71 117 -32 215 -62
219 -65 3 -4 -1 -15 -10 -25 -51 -56 -63 -197 -27 -296 20 -51 85 -126 110
-126 5 0 33 14 61 32 l52 32 31 -35 c17 -20 63 -64 102 -98 82 -71 202 -123
290 -127 30 -1 70 -12 100 -27 69 -34 107 -41 165 -27 51 12 102 53 141 112
13 20 27 26 72 31 66 7 136 36 182 77 28 24 44 30 82 30 58 1 139 35 197 83
41 34 44 40 34 65 -8 22 -7 30 8 42 10 9 37 37 61 63 41 45 43 51 37 90 -4 23
-13 56 -20 74 -12 29 -11 33 16 59 46 44 33 105 -30 152 -17 12 -31 29 -31 36
0 8 -23 38 -50 67 -48 51 -50 56 -44 94 5 39 3 43 -38 81 -85 78 -112 94 -159
94 -24 0 -59 -4 -78 -10 -30 -8 -38 -6 -72 21 -117 92 -258 118 -358 66 -41
-21 -57 -24 -76 -17 -27 10 -32 24 -14 36 19 11 69 131 82 195 11 55 15 61 62
91 68 45 85 79 92 182 6 90 0 110 -40 125 -16 6 -20 20 -23 97 -2 49 -4 110
-3 136 0 25 -7 63 -15 82 -14 34 -17 36 -64 36 -44 0 -51 3 -56 23 -3 13 -19
41 -35 64 -32 44 -58 53 -154 54 -44 1 -55 5 -63 23 -8 18 -16 21 -70 19 -85
-2 -136 -18 -191 -60 -40 -31 -59 -38 -115 -44 -65 -7 -121 -31 -186 -79 -23
-17 -32 -18 -65 -9 -42 11 -56 33 -38 58 35 48 61 119 61 169 0 60 -39 180
-74 231 -23 32 -24 36 -10 73 27 78 20 119 -39 205 l-54 78 -51 -2 c-37 -2
-52 1 -52 10 0 7 -45 57 -101 110 -110 107 -133 116 -179 72 l-26 -25 -59 25
c-33 13 -67 25 -75 25 -8 0 -47 -24 -86 -53z m138 11 c47 -14 78 -64 78 -125
0 -53 -77 -293 -96 -300 -10 -3 -32 10 -57 34 -51 49 -121 83 -170 83 -51 0
-55 18 -21 88 53 106 96 160 163 203 51 33 50 33 103 17z m294 -96 c52 -38 57
-46 82 -123 15 -44 22 -90 22 -142 0 -85 -4 -89 -57 -62 -36 18 -64 10 -125
-37 l-36 -28 -52 20 c-28 11 -62 20 -76 20 -13 0 -27 6 -30 14 -3 7 11 62 30
122 20 59 36 113 36 120 0 6 19 32 42 59 64 73 102 81 164 37z m174 -102 c29
-15 101 -126 107 -163 6 -42 -21 -112 -39 -100 -7 4 -37 8 -65 8 l-53 0 -3
123 c-3 104 -1 124 12 132 20 12 19 12 41 0z m-624 -156 c98 -52 107 -76 35
-94 -61 -14 -125 -67 -151 -125 -24 -53 -36 -62 -58 -42 -19 17 -95 34 -164
36 -40 2 -1 135 54 188 52 50 85 63 164 63 57 0 81 -5 120 -26z m508 -106 c13
-18 10 -28 -21 -89 -19 -38 -36 -69 -38 -69 -9 0 -75 103 -75 118 0 22 76 71
101 65 11 -3 26 -14 33 -25z m-231 -28 c73 -27 133 -93 143 -155 11 -75 0 -97
-84 -168 -104 -88 -135 -122 -169 -186 -16 -30 -34 -56 -40 -58 -6 -2 -24 21
-41 50 -43 76 -133 171 -198 207 -30 18 -54 35 -54 39 0 12 20 72 36 107 7 17
17 40 22 50 29 70 70 107 152 138 31 12 177 -3 233 -24z m414 -3 c33 -34 84
-137 99 -203 17 -72 17 -77 -1 -130 -15 -45 -32 -68 -88 -120 -38 -35 -73 -64
-76 -64 -4 0 -15 28 -26 61 -12 43 -33 79 -69 122 -99 116 -93 96 -57 195 33
90 78 146 125 155 30 7 79 -1 93 -16z m-900 -128 c37 -12 48 -36 39 -85 -10
-49 -28 -63 -76 -57 -37 5 -45 2 -75 -27 -33 -32 -35 -37 -33 -99 2 -74 -7
-111 -26 -111 -7 0 -38 26 -68 58 -46 48 -58 68 -68 114 -18 78 -1 123 67 181
51 44 150 55 240 26z m705 -191 c47 -55 76 -104 84 -141 16 -69 15 -80 -15
-142 -17 -35 -31 -72 -31 -83 0 -24 -30 -36 -128 -52 -54 -9 -87 -21 -124 -47
-55 -37 -62 -36 -115 5 -19 15 -22 28 -24 92 -2 82 14 134 62 205 45 68 210
215 240 215 4 0 27 -24 51 -52z m-625 0 c49 -25 163 -137 193 -193 56 -101 79
-225 41 -225 -10 0 -24 7 -31 15 -17 20 -49 19 -118 -4 -87 -30 -156 -70 -166
-98 -4 -9 -9 -32 -12 -52 -7 -44 -16 -55 -40 -47 -37 11 -72 69 -77 127 -3 30
-12 76 -20 103 -12 44 -12 59 5 140 11 50 21 122 22 160 2 59 6 71 26 88 20
17 33 19 80 13 30 -4 74 -16 97 -27z m1738 -68 c7 -6 20 -28 30 -50 35 -78 -5
-139 -149 -225 -32 -19 -61 -35 -64 -35 -3 0 -20 -12 -39 -26 -46 -35 -63 -26
-63 30 0 62 -26 132 -67 183 -19 24 -33 49 -30 56 3 8 27 21 54 31 26 10 57
22 68 26 50 23 96 29 169 24 44 -2 85 -9 91 -14z m-438 -74 c72 -45 119 -115
130 -192 6 -48 -6 -61 -39 -40 -13 8 -44 20 -69 26 -45 11 -64 9 -176 -25 -18
-6 -25 -2 -33 20 -6 16 -34 54 -61 87 -58 66 -57 70 19 115 83 49 162 52 229
9z m-1583 -55 c37 -38 38 -40 29 -83 -7 -33 -6 -58 4 -94 22 -78 18 -109 -12
-84 -22 18 -52 79 -64 127 -5 21 -16 61 -23 88 -26 93 2 112 66 46z m1244 -20
c74 -38 140 -129 127 -172 -6 -18 -67 -59 -89 -59 -7 0 -23 11 -35 24 -52 56
-126 50 -165 -12 -29 -46 -43 -58 -79 -67 -30 -8 -28 -13 -32 99 -4 82 27 146
88 185 43 28 134 28 185 2z m904 -81 c39 -11 51 -33 63 -112 9 -56 -42 -169
-106 -236 -41 -42 -54 -50 -65 -41 -8 6 -12 15 -9 19 3 5 -5 20 -17 35 -19 21
-35 27 -88 33 l-65 7 -37 60 c-51 81 -54 87 -37 97 8 5 58 36 112 69 87 54
126 69 202 78 6 0 27 -4 47 -9z m-495 -87 c41 -19 145 -131 169 -181 39 -82
25 -189 -32 -243 -24 -22 -35 -24 -177 -30 -147 -6 -202 -16 -259 -45 -36 -18
-41 -2 -22 68 24 87 12 245 -23 313 -16 31 -7 42 70 81 127 65 196 74 274 37z
m-1134 -60 c34 -21 87 -63 119 -94 49 -47 58 -61 58 -91 0 -41 -32 -88 -61
-88 -10 0 -19 5 -19 11 0 6 -24 -8 -52 -31 l-53 -42 -89 4 -89 3 -64 70 -65
70 6 60 c3 33 5 61 6 62 2 11 117 73 144 79 20 3 39 10 42 15 11 19 58 7 117
-28z m731 -14 c52 -58 65 -93 72 -199 8 -99 -15 -203 -61 -286 -41 -73 -61
-79 -79 -24 -9 30 -22 40 -80 69 -48 23 -88 35 -132 39 -59 4 -65 3 -101 -27
-43 -35 -58 -38 -72 -13 -17 33 -6 98 25 144 16 23 40 66 54 93 20 40 45 65
119 121 52 38 97 77 99 85 10 31 36 49 73 49 32 0 43 -7 83 -51z m-304 15 c6
-14 10 -43 10 -64 0 -33 -6 -43 -43 -74 -25 -20 -48 -50 -56 -73 -14 -41 -38
-73 -53 -73 -20 0 5 108 44 190 57 121 80 143 98 94z m-84 3 c2 -7 -14 -50
-36 -95 -36 -72 -42 -94 -47 -170 -5 -84 -15 -122 -32 -122 -15 0 -91 72 -91
86 0 8 7 17 15 21 22 8 45 56 45 93 0 17 -10 44 -21 60 -39 52 -4 98 96 127
54 15 65 15 71 0z m1399 -121 c14 -21 15 -36 5 -102 -9 -67 -15 -83 -42 -111
-49 -50 -61 -50 -112 2 -25 25 -46 48 -46 51 0 3 27 36 60 72 33 37 60 72 60
77 0 17 22 35 42 35 10 0 25 -11 33 -24z m-288 -67 c21 -7 32 -18 36 -36 8
-41 2 -46 -71 -73 -37 -14 -70 -27 -75 -29 -8 -3 -1 107 8 137 5 15 61 16 102
1z m-1715 -86 c74 -74 77 -76 132 -81 62 -5 73 -21 31 -48 -37 -24 -185 -16
-242 14 -37 20 -103 86 -103 104 0 16 73 88 90 88 9 0 51 -34 92 -77z m1824
-55 c20 -12 35 -30 39 -47 13 -60 -43 -239 -92 -293 -21 -24 -65 -23 -113 2
-23 12 -59 20 -88 20 l-49 0 4 118 c3 64 6 122 8 128 4 15 88 62 147 83 54 20
97 17 144 -11z m-1450 -40 c-9 -13 -20 -44 -25 -69 -5 -24 -12 -52 -16 -62 -6
-15 -4 -17 19 -11 23 5 26 3 26 -19 0 -13 -9 -36 -21 -50 -15 -20 -17 -31 -11
-44 15 -28 33 -196 23 -206 -25 -25 -37 6 -65 169 -35 211 -35 211 -45 256
-10 44 1 58 63 74 55 14 76 -2 52 -38z m1122 -60 c15 -15 16 -125 1 -184 -9
-33 -22 -53 -53 -78 -52 -43 -79 -56 -109 -56 -14 0 -47 -7 -75 -16 l-50 -16
-58 32 c-39 21 -78 34 -116 37 -52 5 -58 8 -67 36 -18 50 -13 78 23 117 18 20
35 41 37 46 7 18 84 57 144 75 73 21 304 26 323 7z m-678 -38 c66 -30 73 -35
81 -51 20 -37 51 -161 56 -219 5 -60 3 -68 -21 -97 -26 -31 -72 -48 -101 -36
-9 3 -14 11 -11 18 6 18 -16 25 -76 25 -50 0 -53 2 -115 63 l-63 64 0 95 0 96
41 37 c41 37 43 37 103 32 33 -3 81 -15 106 -27z m-282 -32 c8 -8 12 -46 12
-103 0 -100 13 -140 56 -174 30 -24 31 -41 2 -41 -15 0 -38 18 -66 50 -24 28
-49 50 -55 49 -29 -3 -38 4 -62 51 -34 68 -36 156 -2 170 32 13 101 12 115 -2z
m1113 -189 c6 -10 3 -18 -13 -29 -11 -8 -48 -36 -81 -62 -33 -26 -69 -48 -81
-48 -29 0 -81 54 -70 72 12 20 63 62 93 76 34 16 140 10 152 -9z m483 -29 c71
-32 155 -98 162 -127 9 -36 -11 -95 -45 -127 -21 -20 -54 -34 -122 -51 l-94
-24 -80 78 c-71 69 -132 111 -163 111 -47 0 46 115 123 152 53 25 150 20 219
-12z m-361 -1 c48 -13 48 -34 -2 -83 -34 -33 -45 -38 -99 -42 -33 -2 -80 -8
-104 -14 -56 -12 -58 -12 -58 3 0 19 96 95 155 123 57 27 58 27 108 13z m-647
-34 c60 -30 62 -41 16 -88 -23 -23 -48 -59 -57 -79 -9 -24 -22 -38 -33 -38
-12 0 -25 -15 -37 -42 -26 -60 -65 -118 -80 -118 -42 0 -98 88 -110 173 l-7
47 34 0 c34 0 86 30 113 67 8 10 15 35 15 55 0 20 6 39 13 42 20 9 100 -2 133
-19z m322 -94 c47 -52 72 -88 72 -103 0 -44 -29 -130 -56 -169 -36 -53 -67
-60 -104 -24 -36 34 -99 37 -141 6 -39 -29 -53 -26 -81 17 -84 130 -52 240 92
318 47 25 69 32 110 33 31 0 43 -8 108 -78z m995 44 c37 -18 137 -107 137
-122 0 -6 -8 -21 -18 -33 -17 -21 -19 -22 -70 -7 -62 19 -49 17 -120 17 l-59
0 1 70 c1 59 4 71 21 79 30 14 73 13 108 -4z m-1868 -40 c24 -31 26 -40 20
-86 -5 -37 -4 -50 4 -45 6 4 11 13 11 19 0 11 86 107 96 107 2 0 24 -10 49
-22 69 -34 59 -50 -65 -107 -58 -26 -161 -76 -229 -110 -112 -55 -126 -60
-140 -46 -14 13 -13 16 2 27 23 17 157 85 179 92 24 7 41 80 35 149 -3 31 -1
57 3 57 5 0 21 -16 35 -35z m1158 -25 c32 -5 82 -20 111 -34 57 -27 146 -114
146 -143 0 -10 -38 -55 -84 -99 -106 -102 -210 -158 -296 -158 -51 -1 -141 10
-144 16 0 2 -9 18 -18 36 -24 45 -23 61 7 84 39 31 75 119 82 204 l6 74 36 10
c20 5 50 11 66 13 17 2 30 5 30 5 0 1 26 -2 58 -8z m787 -128 c25 -11 55 -23
68 -27 28 -8 92 -104 92 -138 0 -32 -32 -72 -84 -104 -35 -23 -109 -42 -280
-74 -24 -5 -32 11 -47 100 -12 70 -12 75 7 90 52 43 83 128 54 146 -5 3 -10
13 -10 22 0 13 12 15 78 11 46 -4 96 -14 122 -26z m-202 -41 c4 -27 -42 -101
-63 -101 -19 0 -115 72 -115 87 0 6 15 15 33 19 17 3 48 15 67 25 29 16 37 17
55 5 11 -7 21 -23 23 -35z m-1288 -60 c0 -32 -7 -46 -35 -72 -18 -18 -31 -37
-28 -42 3 -5 10 -4 16 2 6 6 28 11 49 11 21 0 54 6 72 14 52 21 62 8 41 -54
-9 -28 -23 -54 -31 -57 -8 -3 -67 9 -132 27 -64 18 -164 46 -222 62 -115 32
-129 40 -112 61 10 12 26 11 105 -9 50 -13 101 -26 112 -29 25 -8 97 46 125
93 26 43 40 40 40 -7z m1115 5 c81 -48 115 -126 115 -266 0 -74 -4 -93 -27
-140 -31 -61 -70 -89 -163 -117 -140 -43 -133 -44 -169 29 -38 78 -125 176
-192 218 -42 26 -49 33 -39 45 7 8 19 15 26 15 33 0 123 61 216 147 95 89 101
93 145 93 31 0 60 -8 88 -24z m-756 -109 c26 -31 53 -74 60 -94 8 -21 22 -50
32 -65 23 -31 23 -44 5 -80 -8 -14 -19 -41 -25 -60 -7 -18 -29 -53 -50 -76
-35 -40 -43 -44 -95 -49 l-57 -5 -50 54 c-28 29 -57 63 -65 74 -21 30 -26 89
-14 153 8 44 19 64 50 96 31 32 37 44 28 53 -16 16 25 60 61 64 48 6 72 -7
120 -65z m233 -144 c24 -9 50 -22 59 -30 8 -7 20 -13 26 -13 20 0 153 -150
175 -197 17 -35 23 -67 23 -116 0 -60 -3 -71 -24 -88 -24 -20 -66 -25 -89 -11
-7 5 -38 5 -70 1 -111 -16 -206 -14 -243 5 -19 10 -45 20 -59 22 -14 2 -39 6
-57 9 -61 11 -125 114 -70 116 54 1 92 10 110 26 33 30 72 96 96 161 23 62 24
65 7 93 -35 60 2 67 116 22z m1055 11 c39 -26 50 -47 52 -100 1 -41 -72 -125
-138 -158 -82 -42 -166 -73 -181 -67 -10 4 -16 23 -18 56 -3 64 -25 119 -69
173 -47 58 -39 64 112 95 159 33 195 33 242 1z m-1573 -61 c-9 -65 6 -98 77
-177 59 -65 68 -80 59 -96 -12 -22 -78 -70 -96 -70 -7 0 -30 20 -52 45 -29 33
-42 60 -52 105 -22 105 3 220 49 220 14 0 17 -6 15 -27z m1213 -55 c53 -58 73
-192 40 -269 -25 -57 -84 -103 -160 -124 -90 -24 -97 -20 -97 57 -1 35 -7 81
-15 103 -16 45 -16 46 45 69 72 28 122 85 145 164 3 12 10 22 14 22 4 0 17
-10 28 -22z m-261 -219 c12 -14 18 -41 21 -97 4 -66 1 -83 -19 -122 -13 -25
-42 -59 -66 -77 -84 -64 -192 -37 -277 67 -25 30 -45 58 -45 62 0 15 46 20
116 13 l74 -7 35 35 c29 29 35 42 33 71 -2 40 7 54 42 61 12 2 24 6 26 8 11
10 45 3 60 -14z m-569 -151 c7 -6 44 -10 81 -9 68 1 69 1 100 -38 37 -46 42
-81 13 -81 -40 0 -225 80 -258 112 -18 17 -30 35 -28 39 6 9 74 -8 92 -23z"/>
</g>
</svg>
