<?xml version="1.0" encoding="UTF-8" standalone="no"?>
<svg
   xmlns:dc="http://purl.org/dc/elements/1.1/"
   xmlns:cc="http://creativecommons.org/ns#"
   xmlns:rdf="http://www.w3.org/1999/02/22-rdf-syntax-ns#"
   xmlns:svg="http://www.w3.org/2000/svg"
   xmlns="http://www.w3.org/2000/svg"
   xmlns:sodipodi="http://sodipodi.sourceforge.net/DTD/sodipodi-0.dtd"
   xmlns:inkscape="http://www.inkscape.org/namespaces/inkscape"
   width="436pt"
   height="424pt"
   viewBox="0 0 436 424"
   version="1.1"
   id="svg6090"
   inkscape:version="0.48.2 r9819"
   sodipodi:docname="hops_left_dualcolor.svg">
  <metadata
     id="metadata6212">
    <rdf:RDF>
      <cc:Work
         rdf:about="">
        <dc:format>image/svg+xml</dc:format>
        <dc:type
           rdf:resource="http://purl.org/dc/dcmitype/StillImage" />
        <dc:title></dc:title>
      </cc:Work>
    </rdf:RDF>
  </metadata>
  <defs
     id="defs6210" />
  <sodipodi:namedview
     pagecolor="#ffffff"
     bordercolor="#666666"
     borderopacity="1"
     objecttolerance="10"
     gridtolerance="10"
     guidetolerance="10"
     inkscape:pageopacity="0"
     inkscape:pageshadow="2"
     inkscape:window-width="640"
     inkscape:window-height="480"
     id="namedview6208"
     showgrid="false"
     inkscape:zoom="0.44528302"
     inkscape:cx="272.5"
     inkscape:cy="265"
     inkscape:window-x="0"
     inkscape:window-y="0"
     inkscape:window-maximized="0"
     inkscape:current-layer="svg6090" />
  <path
     fill="#2b6492"
     d=" M 283.62 54.75 C 288.70 51.74 291.92 45.66 298.10 44.60 C 301.80 44.86 304.02 48.51 306.64 50.74 C 311.81 48.81 318.77 45.03 323.58 49.55 C 327.16 52.39 330.49 55.51 333.66 58.80 C 335.66 58.76 337.89 57.79 339.80 58.51 C 347.05 64.89 350.89 74.53 351.37 84.07 C 351.13 88.25 355.23 90.50 357.12 93.76 C 361.19 99.38 361.32 106.49 362.68 113.02 C 364.32 115.23 366.88 116.46 368.98 118.17 C 373.86 121.81 376.89 127.89 376.58 134.00 C 376.78 139.38 373.90 144.13 371.22 148.57 C 369.25 151.57 372.24 155.18 370.89 158.37 C 369.15 163.52 366.96 168.51 365.18 173.64 C 362.91 180.29 357.01 184.52 352.65 189.70 C 350.42 192.48 347.58 194.68 345.33 197.42 C 345.71 201.88 349.47 205.18 351.46 209.03 C 348.30 212.73 345.17 216.76 340.64 218.85 C 332.38 222.81 322.44 223.74 313.84 220.32 C 310.97 219.08 308.85 216.70 306.75 214.48 C 300.57 229.78 298.67 246.45 292.57 261.78 C 290.09 261.32 287.64 260.78 285.17 260.27 C 285.25 250.83 289.88 242.05 289.57 232.56 C 286.08 234.76 283.18 237.83 279.46 239.67 C 276.50 241.17 273.28 242.00 270.10 242.88 C 271.23 248.00 273.72 252.65 275.87 257.38 C 281.25 268.91 287.60 280.02 292.13 291.92 C 289.76 293.34 287.27 294.54 284.76 295.68 C 280.31 288.54 277.29 280.55 272.19 273.82 C 270.34 271.12 266.86 271.48 264.01 271.40 C 260.26 271.29 256.22 271.60 253.18 274.02 C 249.41 277.10 245.68 280.25 242.16 283.62 C 248.29 284.17 254.28 282.64 260.37 282.38 C 260.52 285.28 260.58 288.19 260.60 291.11 C 244.80 294.27 228.77 296.19 213.06 299.77 C 216.03 303.96 219.30 308.50 218.61 313.95 C 219.54 325.63 214.34 339.00 202.92 343.68 C 199.12 341.84 196.06 338.83 192.79 336.21 C 186.80 341.19 180.61 345.93 174.38 350.60 C 168.85 355.10 161.42 355.29 154.96 357.66 C 150.84 359.39 146.45 358.26 142.26 357.58 C 137.65 359.57 133.07 362.25 127.84 361.72 C 120.95 362.43 114.05 358.56 110.79 352.51 C 109.08 350.08 108.35 346.26 104.98 345.66 C 98.88 344.14 92.38 342.79 87.54 338.49 C 84.62 336.11 82.60 332.06 78.40 331.87 C 68.67 330.69 59.72 325.33 53.96 317.42 C 54.58 315.60 55.23 313.79 55.86 311.98 C 52.65 308.54 49.79 304.78 47.13 300.90 C 46.18 299.46 45.13 297.86 45.49 296.05 C 46.34 291.83 48.16 287.89 49.93 283.99 C 47.56 281.01 44.13 277.86 45.50 273.63 C 47.57 268.64 52.95 266.20 56.05 261.95 C 58.93 258.00 62.49 254.56 66.82 252.23 C 66.53 249.30 66.36 246.36 66.32 243.42 C 71.16 239.23 76.44 235.48 82.09 232.47 C 87.10 229.98 92.36 233.04 97.19 234.42 C 98.94 235.16 100.40 233.78 101.81 232.97 C 108.67 228.27 116.82 225.68 125.03 224.70 C 130.73 224.87 136.13 227.21 140.75 230.44 C 142.42 231.78 144.60 231.69 146.61 231.87 C 147.61 229.03 148.89 226.13 148.66 223.05 C 146.22 218.71 142.77 214.94 141.02 210.21 C 138.81 205.49 139.44 200.12 138.20 195.18 C 135.61 191.16 131.93 187.72 130.46 183.04 C 128.92 177.88 128.01 172.46 128.27 167.07 C 129.01 165.25 131.16 164.50 132.59 163.28 C 132.58 157.30 133.01 151.18 134.72 145.44 C 138.09 142.22 142.61 140.59 146.74 138.59 C 146.99 135.03 145.40 130.13 149.13 127.88 C 154.09 125.04 160.05 127.37 165.39 126.18 C 170.58 124.96 175.95 125.26 181.22 125.75 C 182.33 123.58 183.49 121.44 184.72 119.34 C 191.65 119.41 198.84 118.88 205.46 121.36 C 210.16 123.31 212.37 128.17 214.88 132.24 C 216.35 135.09 220.04 134.25 222.63 135.03 C 230.52 136.23 237.27 140.68 244.29 144.14 C 244.93 141.80 246.51 139.17 244.95 136.85 C 242.09 131.73 239.71 126.03 240.49 120.03 C 241.76 110.63 246.63 102.12 252.56 94.88 C 252.90 89.34 248.74 83.74 251.81 78.36 C 255.37 72.39 260.15 67.17 265.25 62.47 C 267.87 63.22 270.48 64.02 273.10 64.80 C 275.71 60.62 279.38 57.23 283.62 54.75 Z"
     id="path6094" />
  <path
     fill="#000000"
     d=" M 292.45 50.22 C 294.68 49.44 296.98 47.88 299.45 48.52 C 301.79 49.96 303.56 52.30 304.40 54.92 C 303.59 56.55 302.51 58.03 301.49 59.52 C 298.33 56.57 295.16 53.60 292.45 50.22 Z"
     id="path6096" />
  <path
     fill="#000000"
     d=" M 305.78 64.98 C 304.57 57.65 310.90 49.24 318.81 50.77 C 324.72 53.67 329.74 58.51 332.75 64.39 C 335.86 70.07 338.15 76.15 339.96 82.36 C 334.37 82.59 328.55 82.90 323.47 85.52 C 319.31 87.70 315.66 90.72 311.67 93.19 C 309.18 83.91 307.36 74.45 305.78 64.98 Z"
     id="path6098" />
  <path
     fill="#000000"
     d=" M 278.69 62.54 C 281.78 59.00 286.13 56.01 290.89 55.53 C 297.18 59.30 302.63 65.64 303.66 73.12 C 304.82 79.87 306.29 86.57 307.86 93.24 C 302.47 94.20 297.06 95.10 291.79 96.59 C 288.59 93.63 285.61 90.18 281.48 88.49 C 278.18 86.88 274.76 89.15 271.56 89.95 C 271.16 80.36 273.43 70.62 278.69 62.54 Z"
     id="path6100" />
  <path
     fill="#000000"
     d=" M 337.02 61.45 C 344.33 66.79 348.75 75.97 347.59 85.05 C 345.59 83.84 343.73 82.28 343.10 79.93 C 340.99 73.80 337.94 67.93 337.02 61.45 Z"
     id="path6102" />
  <path
     fill="#000000"
     d=" M 264.73 67.52 C 266.34 65.78 268.84 66.90 270.88 66.86 C 269.49 74.72 267.76 82.56 268.28 90.61 C 263.92 90.31 259.39 91.03 255.16 89.75 C 253.76 85.77 253.65 80.87 256.22 77.32 C 258.69 73.77 261.46 70.37 264.73 67.52 Z"
     id="path6104" />
  <path
     fill="#000000"
     d=" M 317.56 93.54 C 322.70 89.21 329.13 86.11 335.98 86.35 C 342.72 85.99 349.72 88.78 353.70 94.37 C 357.59 99.50 358.85 106.11 358.76 112.43 C 352.04 112.25 345.18 112.18 338.77 114.52 C 336.48 109.87 334.63 104.83 330.95 101.05 C 327.35 97.23 322.16 95.75 317.56 93.54 Z"
     id="path6106" />
  <path
     fill="#000000"
     d=" M 273.97 94.10 C 275.83 93.21 277.59 91.03 279.84 91.76 C 282.99 92.99 285.71 95.27 287.62 98.03 C 285.40 101.78 282.18 104.80 279.42 108.15 C 277.60 103.47 275.71 98.81 273.97 94.10 Z"
     id="path6108" />
  <path
     fill="#000000"
     d=" M 254.15 98.22 C 255.77 96.33 257.55 94.25 260.09 93.65 C 265.48 93.64 271.02 96.77 273.18 101.84 C 275.23 106.74 276.77 111.90 277.54 117.15 C 277.87 118.67 277.19 120.05 276.04 121.03 C 271.94 125.26 267.32 129.04 263.83 133.83 C 261.20 137.48 259.72 141.79 258.12 145.95 C 251.55 139.66 243.70 132.82 243.50 122.96 C 243.70 113.76 248.46 105.22 254.15 98.22 Z"
     id="path6110" />
  <path
     fill="#000000"
     d=" M 291.79 100.96 C 299.52 97.17 308.52 96.85 316.92 97.91 C 324.53 98.91 330.43 104.94 333.38 111.72 C 335.73 117.37 337.39 123.35 337.93 129.46 C 330.55 132.77 323.11 136.53 317.52 142.53 C 313.61 146.78 310.43 151.62 306.96 156.21 C 303.86 146.08 297.57 137.29 290.03 129.98 C 286.61 126.41 281.63 123.22 281.46 117.76 C 281.18 110.76 286.09 104.50 291.79 100.96 Z"
     id="path6112" />
  <path
     fill="#000000"
     d=" M 340.55 118.66 C 344.95 115.49 350.86 115.39 356.07 115.82 C 362.93 116.42 368.84 121.03 372.09 126.94 C 374.91 132.69 373.31 139.71 369.89 144.85 C 366.63 149.18 362.05 152.22 357.70 155.35 C 356.18 150.58 356.61 145.63 357.48 140.80 C 358.36 136.41 355.30 132.24 351.61 130.24 C 348.56 129.13 345.21 129.60 342.03 129.40 C 341.24 125.89 339.96 122.31 340.55 118.66 Z"
     id="path6114" />
  <path
     fill="#000000"
     d=" M 186.59 122.34 C 192.35 122.32 198.23 122.31 203.77 124.11 C 207.56 125.25 209.36 129.09 211.49 132.08 C 208.48 135.24 205.42 138.35 202.24 141.35 C 197.14 135.55 191.05 130.77 184.34 126.99 C 185.08 125.43 185.83 123.88 186.59 122.34 Z"
     id="path6116" />
  <path
     fill="#000000"
     d=" M 263.09 142.98 C 265.81 135.22 272.04 129.54 277.99 124.18 C 289.44 132.45 299.55 143.77 303.42 157.61 C 305.18 162.59 303.62 167.80 302.65 172.77 C 302.10 177.06 297.17 177.99 294.00 179.76 C 290.83 176.66 287.73 173.27 283.57 171.51 C 277.16 168.48 269.95 168.53 263.07 167.66 C 261.07 159.63 260.40 150.93 263.09 142.98 Z"
     id="path6118" />
  <path
     fill="#000000"
     d=" M 160.56 134.27 C 161.19 129.94 166.38 128.84 170.01 128.43 C 176.05 127.46 181.66 130.33 186.87 132.96 C 191.73 135.49 195.42 139.64 198.84 143.82 C 196.03 145.08 192.50 145.91 190.98 148.90 C 189.05 152.83 189.98 157.40 188.66 161.47 C 184.64 165.20 179.47 167.43 174.79 170.22 C 170.99 163.72 166.98 157.34 163.03 150.93 C 159.95 145.97 160.07 139.87 160.56 134.27 Z"
     id="path6120" />
  <path
     fill="#000000"
     d=" M 150.35 130.96 C 152.75 130.31 155.16 129.69 157.58 129.12 C 157.10 133.34 156.56 137.55 156.31 141.79 C 154.41 141.32 152.52 140.82 150.63 140.34 C 150.47 137.22 150.40 134.09 150.35 130.96 Z"
     id="path6122" />
  <path
     fill="#000000"
     d=" M 323.79 141.76 C 329.18 137.25 335.65 133.00 342.97 133.29 C 345.84 133.48 349.12 132.79 351.66 134.43 C 354.58 136.51 353.47 140.52 353.48 143.55 C 352.54 151.76 354.81 159.86 354.58 168.06 C 354.64 172.01 352.36 175.39 351.31 179.07 C 350.23 182.44 350.10 186.13 348.42 189.30 C 346.54 192.08 343.81 194.19 340.95 195.90 C 338.09 192.68 340.50 187.54 337.99 184.04 C 333.10 177.50 325.47 173.89 318.00 171.14 C 314.15 169.54 310.11 171.41 306.25 171.98 C 307.92 160.10 314.57 149.30 323.79 141.76 Z"
     id="path6124" />
  <path
     fill="#000000"
     d=" M 205.86 144.75 C 207.25 141.38 209.80 137.23 213.92 137.34 C 222.30 136.99 230.43 140.10 237.56 144.25 C 239.89 145.73 242.97 147.76 242.43 150.96 C 241.63 154.86 239.01 158.17 238.56 162.17 C 238.26 164.95 238.34 167.75 238.32 170.53 C 231.30 168.89 224.08 169.55 216.95 169.27 C 213.49 169.38 212.41 165.55 210.84 163.18 C 207.96 157.54 203.85 151.37 205.86 144.75 Z"
     id="path6126" />
  <path
     fill="#000000"
     d=" M 137.31 148.46 C 141.36 141.15 153.00 141.89 157.26 148.68 C 162.59 156.66 167.60 164.90 172.14 173.36 C 166.64 174.24 160.92 174.44 155.72 176.62 C 151.36 178.46 148.02 181.92 144.53 184.99 C 138.24 174.09 133.98 161.01 137.31 148.46 Z"
     id="path6128" />
  <path
     fill="#000000"
     d=" M 247.89 142.13 C 251.27 144.79 255.73 147.09 257.30 151.30 C 257.69 158.44 258.75 165.52 260.56 172.44 C 255.17 167.72 250.87 161.85 247.51 155.54 C 245.19 151.34 246.62 146.41 247.89 142.13 Z"
     id="path6130" />
  <path
     fill="#000000"
     d=" M 194.64 148.58 C 196.62 148.50 198.61 148.41 200.60 148.34 C 202.26 152.86 203.89 157.41 205.86 161.82 C 201.44 161.55 197.02 161.33 192.64 160.72 C 192.81 156.61 193.51 152.53 194.64 148.58 Z"
     id="path6132" />
  <path
     fill="#000000"
     d=" M 358.59 159.54 C 360.87 156.44 364.60 154.96 367.96 153.38 C 367.71 156.12 367.48 158.90 366.49 161.49 C 363.47 169.05 361.47 177.76 354.30 182.64 C 355.02 178.87 356.64 175.38 357.75 171.73 C 358.95 167.76 357.92 163.57 358.59 159.54 Z"
     id="path6134" />
  <path
     fill="#000000"
     d=" M 242.14 169.79 C 240.82 165.73 242.14 161.55 243.69 157.77 C 248.25 163.38 252.90 169.02 256.67 175.19 C 255.49 178.30 252.49 180.16 250.14 182.32 C 246.68 178.75 243.10 174.85 242.14 169.79 Z"
     id="path6136" />
  <path
     fill="#000000"
     d=" M 177.36 174.33 C 183.27 168.69 190.99 163.53 199.55 164.69 C 204.28 165.57 209.67 167.37 212.00 171.96 C 214.49 176.25 213.18 181.34 212.86 185.98 C 211.98 196.17 215.15 206.03 217.89 215.71 C 208.89 213.54 199.52 212.58 190.32 213.99 C 185.90 214.77 181.71 216.40 177.46 217.80 C 172.78 209.56 166.61 201.03 167.34 191.06 C 167.46 184.11 172.49 178.70 177.36 174.33 Z"
     id="path6138" />
  <path
     fill="#000000"
     d=" M 131.49 173.38 C 131.27 171.32 131.90 169.31 132.52 167.38 C 134.23 170.49 135.55 173.78 136.86 177.07 C 138.77 181.91 141.76 186.78 140.44 192.20 C 134.92 187.53 132.09 180.45 131.49 173.38 Z"
     id="path6140" />
  <path
     fill="#000000"
     d=" M 217.64 172.63 C 224.45 172.55 231.48 172.12 238.00 174.42 C 239.73 175.01 241.04 176.34 242.14 177.74 C 244.89 181.25 247.52 185.09 248.22 189.60 C 248.87 193.73 250.67 197.69 250.73 201.90 C 249.74 205.42 247.28 208.30 246.01 211.72 C 244.30 215.69 244.45 220.07 244.36 224.30 C 241.20 224.97 237.95 227.03 234.71 226.14 C 227.80 221.94 221.76 215.71 219.29 207.85 C 215.63 196.53 215.82 184.27 217.64 172.63 Z"
     id="path6142" />
  <path
     fill="#000000"
     d=" M 258.48 179.49 C 261.30 176.86 263.75 173.71 267.16 171.81 C 275.85 171.75 285.27 174.54 290.61 181.89 C 288.34 185.06 285.43 188.08 284.64 192.03 C 283.99 197.03 286.83 201.49 289.37 205.54 C 284.73 209.98 278.68 213.31 272.13 213.32 C 265.80 213.04 261.33 207.92 257.60 203.38 C 254.20 198.75 251.20 193.07 251.73 187.18 C 253.31 184.11 256.12 181.94 258.48 179.49 Z"
     id="path6144" />
  <path
     fill="#000000"
     d=" M 312.66 174.65 C 315.14 173.72 317.70 175.00 320.01 175.87 C 325.73 178.22 331.66 181.29 335.08 186.65 C 336.01 190.10 336.02 193.90 335.25 197.38 C 332.12 201.47 328.16 204.93 324.03 207.98 C 319.60 210.72 314.03 209.57 309.11 209.45 C 304.45 209.28 301.45 205.44 298.23 202.64 C 295.79 200.20 290.98 202.41 289.36 198.89 C 287.85 195.37 287.67 190.55 290.90 187.90 C 296.60 181.28 305.16 178.60 312.66 174.65 Z"
     id="path6146" />
  <path
     fill="#000000"
     d=" M 150.85 183.89 C 155.64 179.85 161.77 177.96 167.91 177.29 C 166.52 181.53 164.39 185.55 163.65 189.99 C 162.77 196.10 165.57 201.83 166.84 207.67 C 162.58 209.53 158.68 212.13 155.44 215.45 C 153.90 216.67 152.56 218.70 150.40 218.70 C 145.03 213.80 141.77 206.38 142.30 199.07 C 142.40 192.95 146.39 187.71 150.85 183.89 Z"
     id="path6148" />
  <path
     fill="#000000"
     d=" M 324.81 211.68 C 330.61 208.32 334.87 202.97 340.16 198.93 C 343.26 201.74 345.65 205.22 347.39 209.02 C 344.44 211.94 341.62 215.28 337.67 216.88 C 331.78 219.32 325.21 218.93 318.99 218.49 C 315.65 218.36 312.97 216.25 310.88 213.82 C 315.52 213.26 320.61 214.20 324.81 211.68 Z"
     id="path6150" />
  <path
     fill="#000000"
     d=" M 248.73 214.51 C 249.57 211.05 251.76 208.15 253.72 205.25 C 258.73 211.00 265.31 214.95 270.62 220.36 C 275.71 223.47 281.65 225.35 285.71 230.00 C 283.29 232.83 280.75 235.75 277.30 237.34 C 273.56 239.23 269.34 239.66 265.22 239.91 C 264.24 235.18 263.36 229.85 259.47 226.55 C 256.23 224.29 252.07 224.37 248.35 223.54 C 248.36 220.53 248.18 217.48 248.73 214.51 Z"
     id="path6152" />
  <path
     fill="#000000"
     d=" M 292.21 207.81 C 296.24 208.71 300.18 210.01 303.86 211.92 C 300.52 222.73 297.54 233.64 294.74 244.60 C 293.44 249.56 292.14 254.56 289.73 259.12 C 287.30 250.60 293.03 242.43 293.44 234.12 C 290.59 228.47 285.36 224.60 280.82 220.37 C 283.68 220.76 287.00 220.61 289.22 222.80 C 291.63 224.92 293.95 227.19 296.70 228.91 C 295.37 221.84 294.25 214.72 292.21 207.81 Z"
     id="path6154" />
  <path
     fill="#000000"
     d=" M 150.84 237.98 C 148.19 226.52 156.90 214.47 167.91 211.60 C 171.29 213.26 172.73 217.03 174.72 220.00 C 171.78 223.55 167.26 226.90 167.54 232.01 C 167.50 236.38 171.16 239.29 174.22 241.81 C 177.14 244.05 179.28 247.08 181.16 250.21 C 175.64 250.41 170.01 252.23 164.55 250.60 C 158.33 249.00 152.55 244.33 150.84 237.98 Z"
     id="path6156" />
  <path
     fill="#000000"
     d=" M 277.75 216.46 C 280.52 215.22 283.31 214.02 286.13 212.89 C 286.40 214.36 286.64 215.84 286.88 217.32 C 283.81 217.36 280.77 216.95 277.75 216.46 Z"
     id="path6158" />
  <path
     fill="#000000"
     d=" M 185.80 218.70 C 201.15 214.37 218.95 217.13 231.11 227.86 C 227.91 229.17 223.54 229.37 221.77 232.81 C 217.74 240.37 214.27 248.84 215.45 257.58 C 216.86 261.34 219.85 264.23 221.94 267.62 C 218.21 268.60 214.22 269.23 210.42 268.29 C 207.60 267.09 205.38 264.89 202.77 263.34 C 199.06 260.96 194.43 260.01 191.37 256.66 C 185.92 250.76 182.47 243.07 175.88 238.25 C 173.90 236.61 171.08 234.98 171.37 232.01 C 171.03 229.91 172.32 228.16 173.70 226.74 C 177.04 223.19 180.98 219.93 185.80 218.70 Z"
     id="path6160" />
  <path
     fill="#000000"
     d=" M 106.03 233.98 C 113.72 229.63 123.04 226.62 131.82 229.21 C 139.54 231.49 144.03 238.62 148.92 244.45 C 143.96 246.57 138.59 247.94 134.19 251.20 C 129.83 254.11 126.26 258.00 121.98 261.00 C 120.25 262.39 117.97 261.31 116.10 260.84 C 111.38 259.13 106.47 257.56 102.33 254.65 C 97.91 251.57 96.50 245.62 97.69 240.58 C 99.66 237.54 103.03 235.84 106.03 233.98 Z"
     id="path6162" />
  <path
     fill="#000000"
     d=" M 241.54 228.86 C 246.31 227.78 251.57 226.83 256.23 228.85 C 258.82 230.51 261.07 233.62 260.54 236.83 C 259.61 238.81 257.90 240.30 256.94 242.27 C 256.10 245.99 257.07 250.07 255.31 253.59 C 253.81 256.52 251.35 258.78 249.04 261.07 C 246.84 263.20 244.25 265.35 241.01 265.40 C 235.92 265.57 230.73 265.96 225.69 265.12 C 222.59 263.21 220.24 260.12 218.78 256.82 C 217.92 250.61 220.38 244.52 222.75 238.89 C 223.86 236.60 224.75 233.55 227.58 232.90 C 232.23 231.53 236.89 230.21 241.54 228.86 Z"
     id="path6164" />
  <path
     fill="#000000"
     d=" M 75.31 240.29 C 78.85 237.84 82.54 234.98 86.99 234.66 C 89.57 234.86 92.42 235.39 94.37 237.25 C 94.23 241.35 93.43 245.41 93.44 249.53 C 85.86 249.38 78.13 248.71 70.73 250.78 C 70.20 249.25 69.59 247.72 69.39 246.10 C 70.65 243.57 73.14 241.98 75.31 240.29 Z"
     id="path6166" />
  <path
     fill="#000000"
     d=" M 264.00 244.08 C 264.65 244.16 265.97 244.33 266.62 244.41 C 271.10 254.11 275.57 263.82 280.38 273.36 C 283.07 279.31 286.88 284.93 287.81 291.53 C 280.87 286.68 279.44 277.59 275.12 270.79 C 269.31 267.22 262.14 268.75 255.68 268.45 C 257.53 267.08 259.27 265.43 261.47 264.63 C 265.35 264.08 269.30 264.69 273.20 264.30 C 268.97 260.37 263.44 257.63 260.29 252.67 C 260.41 249.46 262.59 246.83 264.00 244.08 Z"
     id="path6168" />
  <path
     fill="#000000"
     d=" M 146.55 249.57 C 152.82 247.80 158.12 252.11 163.74 253.98 C 166.17 254.95 169.51 255.77 169.92 258.85 C 170.96 264.16 170.64 269.82 173.02 274.82 C 174.45 278.21 177.35 280.76 178.73 284.16 C 178.14 287.97 175.34 292.21 171.08 292.20 C 166.01 292.64 160.65 293.19 155.85 291.08 C 144.66 286.62 135.83 277.77 128.90 268.12 C 127.85 266.41 126.35 264.68 126.44 262.55 C 131.67 256.45 138.63 251.39 146.55 249.57 Z"
     id="path6170" />
  <path
     fill="#000000"
     d=" M 75.62 253.50 C 81.05 251.93 86.78 252.52 92.28 253.40 C 90.98 256.57 88.48 260.10 90.26 263.58 C 91.63 267.48 94.94 270.26 96.60 273.98 C 95.59 279.08 93.56 283.93 92.42 289.01 C 85.69 287.82 79.35 285.16 72.74 283.48 C 66.12 282.00 60.73 277.12 57.28 271.45 C 54.95 267.61 58.60 263.73 60.92 260.88 C 64.48 256.33 70.34 255.01 75.62 253.50 Z"
     id="path6172" />
  <path
     fill="#000000"
     d=" M 172.39 254.83 C 176.16 254.33 179.98 253.16 183.80 253.82 C 187.27 256.39 189.45 260.40 193.25 262.58 C 196.32 264.33 199.61 265.67 202.62 267.52 C 197.88 267.88 192.92 267.71 188.66 265.32 C 183.07 262.13 176.00 260.64 172.39 254.83 Z"
     id="path6174" />
  <path
     fill="#000000"
     d=" M 93.45 261.47 C 92.82 259.10 94.77 256.89 96.96 256.34 C 101.54 257.85 105.53 260.72 109.79 262.93 C 106.12 265.18 102.51 267.52 98.91 269.87 C 96.95 267.19 94.31 264.76 93.45 261.47 Z"
     id="path6176" />
  <path
     fill="#ffffff"
     d=" M 258.54 256.66 C 260.15 257.71 261.72 258.81 263.27 259.95 C 261.72 260.58 260.17 261.24 258.62 261.89 C 258.57 260.14 258.54 258.40 258.54 256.66 Z"
     id="path6178" />
  <path
     fill="#000000"
     d=" M 243.93 268.34 C 248.78 267.12 251.97 262.96 256.08 260.40 C 255.23 264.85 251.34 267.32 248.35 270.27 C 245.50 272.87 245.36 277.62 241.68 279.42 C 236.68 282.64 230.58 282.80 224.85 282.28 C 224.03 278.08 223.36 273.83 223.43 269.54 C 230.25 269.08 237.22 270.02 243.93 268.34 Z"
     id="path6180" />
  <path
     fill="#000000"
     d=" M 174.28 262.84 C 182.21 264.92 188.69 271.12 197.13 271.40 C 202.40 271.57 207.67 271.86 212.86 272.84 C 210.91 276.16 208.60 279.25 206.03 282.11 C 202.07 279.52 198.12 275.97 193.07 276.27 C 188.81 276.03 185.37 278.91 181.85 280.84 C 179.44 277.92 176.65 275.08 175.49 271.38 C 174.56 268.63 174.44 265.71 174.28 262.84 Z"
     id="path6182" />
  <path
     fill="#000000"
     d=" M 98.42 280.60 C 100.83 272.11 108.99 265.25 117.98 265.45 C 123.16 265.53 126.33 270.11 129.17 273.80 C 135.80 282.81 144.51 290.33 154.74 294.96 C 148.45 298.35 141.94 301.70 136.88 306.87 C 132.01 311.60 128.43 317.41 124.97 323.21 C 115.80 320.44 105.52 317.59 99.51 309.55 C 93.63 301.01 95.63 289.90 98.42 280.60 Z"
     id="path6184" />
  <path
     fill="#000000"
     d=" M 48.62 277.28 C 47.52 274.39 50.12 272.16 51.64 270.07 C 54.21 273.38 56.71 276.74 59.23 280.10 C 57.73 281.01 56.24 281.92 54.75 282.83 C 52.53 281.20 50.06 279.69 48.62 277.28 Z"
     id="path6186" />
  <path
     fill="#ffffff"
     d=" M 210.64 282.34 C 212.53 278.81 214.60 275.35 217.37 272.45 C 217.81 276.83 217.77 281.25 217.61 285.66 C 215.24 284.64 212.92 283.53 210.64 282.34 Z"
     id="path6188" />
  <path
     fill="#000000"
     d=" M 190.40 280.04 C 193.09 278.87 196.22 279.96 198.64 281.34 C 201.82 283.03 199.62 287.18 201.35 289.71 C 203.59 293.33 206.96 296.55 207.39 301.02 C 207.82 306.45 207.83 312.64 204.11 317.03 C 201.45 320.07 198.47 322.82 195.40 325.44 C 191.84 328.84 186.22 327.47 182.26 325.61 C 176.58 320.89 173.81 313.57 172.34 306.53 C 171.13 301.99 175.09 298.62 177.01 294.97 C 180.29 289.10 184.32 283.27 190.40 280.04 Z"
     id="path6190" />
  <path
     fill="#000000"
     d=" M 49.43 297.52 C 47.85 290.65 54.31 284.39 60.95 284.45 C 64.27 284.53 67.44 285.62 70.61 286.50 C 77.83 288.68 85.17 290.59 92.06 293.70 C 88.46 297.56 84.50 301.25 82.06 306.00 C 79.79 310.37 79.17 315.33 78.32 320.12 C 71.79 318.12 65.73 314.82 60.10 310.99 C 55.25 307.78 51.47 302.94 49.43 297.52 Z"
     id="path6192" />
  <path
     fill="#000000"
     d=" M 207.17 285.07 C 213.84 287.48 220.78 289.08 227.36 291.76 C 227.02 289.63 226.65 287.50 226.36 285.36 C 229.97 286.60 233.41 289.51 237.45 288.53 C 244.45 287.72 251.84 284.75 258.75 287.54 C 251.76 290.12 244.29 290.82 237.01 292.16 C 228.17 293.42 219.43 295.29 210.67 296.96 C 208.96 293.18 207.84 289.16 207.17 285.07 Z"
     id="path6194" />
  <path
     fill="#000000"
     d=" M 132.20 318.11 C 140.98 305.14 155.81 295.73 171.72 295.40 C 170.13 298.84 167.51 302.33 168.49 306.34 C 170.22 313.75 172.84 321.29 178.01 327.05 C 181.20 330.80 186.66 330.12 191.03 331.14 C 189.51 334.47 187.36 337.77 184.01 339.48 C 180.88 340.80 177.37 340.33 174.10 340.97 C 170.02 341.55 166.22 343.73 162.02 343.48 C 153.24 342.85 144.86 339.07 135.96 339.68 C 133.24 339.87 129.58 339.60 128.60 336.52 C 127.71 330.23 128.38 323.39 132.20 318.11 Z"
     id="path6196" />
  <path
     fill="#000000"
     d=" M 82.99 325.57 C 81.00 316.22 83.99 305.32 91.92 299.55 C 93.23 304.09 94.18 308.98 97.25 312.74 C 100.62 317.25 105.80 319.72 110.62 322.34 C 107.61 328.39 106.32 335.12 106.35 341.86 C 96.29 342.07 85.38 335.83 82.99 325.57 Z"
     id="path6198" />
  <path
     fill="#000000"
     d=" M 211.96 304.45 C 213.41 306.47 215.17 308.52 215.40 311.12 C 216.12 317.87 215.26 324.91 212.15 331.00 C 210.23 334.72 206.81 337.29 203.84 340.12 C 199.93 338.24 196.65 335.36 193.95 331.99 C 197.98 327.34 203.36 324.09 207.25 319.32 C 210.73 315.16 210.64 309.44 211.96 304.45 Z"
     id="path6200" />
  <path
     fill="#000000"
     d=" M 57.88 316.13 C 62.63 316.38 66.64 319.09 70.78 321.14 C 73.84 322.66 76.89 324.21 79.85 325.91 C 79.60 326.94 79.35 327.96 79.10 329.00 C 70.61 327.86 62.68 323.29 57.88 316.13 Z"
     id="path6202" />
  <path
     fill="#000000"
     d=" M 110.73 332.99 C 111.35 329.88 111.97 326.07 114.99 324.36 C 118.27 324.70 121.36 325.95 124.50 326.89 C 124.86 331.66 122.91 338.00 127.57 341.25 C 131.00 344.42 135.84 343.43 140.07 343.49 C 143.17 343.41 146.18 344.24 149.16 345.00 C 143.97 351.69 137.29 359.19 128.00 358.73 C 121.59 359.51 115.97 355.27 112.88 349.99 C 109.59 344.97 110.11 338.66 110.73 332.99 Z"
     id="path6204" />
  <path
     fill="#000000"
     d=" M 165.70 346.78 C 169.40 346.04 172.98 344.69 176.77 344.38 C 173.53 347.87 169.42 350.59 164.76 351.72 C 158.56 353.21 152.51 355.98 145.99 355.51 C 147.86 352.34 149.62 348.84 152.77 346.75 C 157.00 345.59 161.42 347.66 165.70 346.78 Z"
     id="path6206" />
</svg>
