<?xml version="1.0" encoding="UTF-8" standalone="no"?>
<!-- Created with Inkscape (http://www.inkscape.org/) -->

<svg
   xmlns:dc="http://purl.org/dc/elements/1.1/"
   xmlns:cc="http://creativecommons.org/ns#"
   xmlns:rdf="http://www.w3.org/1999/02/22-rdf-syntax-ns#"
   xmlns:svg="http://www.w3.org/2000/svg"
   xmlns="http://www.w3.org/2000/svg"
   xmlns:sodipodi="http://sodipodi.sourceforge.net/DTD/sodipodi-0.dtd"
   xmlns:inkscape="http://www.inkscape.org/namespaces/inkscape"
   version="1.0"
   width="313.13568"
   height="1187.1135"
   id="svg2512"
   inkscape:version="0.48.0 r9654"
   sodipodi:docname="beer_bottle_plain_shape.svg"
   style="display:inline">
  <title
     id="title2982">Beer bottle (plain BW shape)</title>
  <metadata
     id="metadata10">
    <rdf:RDF>
      <cc:Work
         rdf:about="">
        <dc:format>image/svg+xml</dc:format>
        <dc:type
           rdf:resource="http://purl.org/dc/dcmitype/StillImage" />
        <dc:title>Beer bottle (plain BW shape)</dc:title>
        <cc:license
           rdf:resource="http://creativecommons.org/licenses/publicdomain/" />
        <dc:date>2011-01-08</dc:date>
        <dc:description>Based on http://www.openclipart.org/detail/48811</dc:description>
        <dc:contributor>
          <cc:Agent>
            <dc:title>j4p4n</dc:title>
          </cc:Agent>
        </dc:contributor>
        <dc:subject>
          <rdf:Bag>
            <rdf:li>bottle</rdf:li>
            <rdf:li>glass bottle</rdf:li>
            <rdf:li>drink</rdf:li>
            <rdf:li>beer</rdf:li>
          </rdf:Bag>
        </dc:subject>
        <dc:creator>
          <cc:Agent>
            <dc:title>Denilson Figueiredo de Sá</dc:title>
          </cc:Agent>
        </dc:creator>
      </cc:Work>
      <cc:License
         rdf:about="http://creativecommons.org/licenses/publicdomain/">
        <cc:permits
           rdf:resource="http://creativecommons.org/ns#Reproduction" />
        <cc:permits
           rdf:resource="http://creativecommons.org/ns#Distribution" />
        <cc:permits
           rdf:resource="http://creativecommons.org/ns#DerivativeWorks" />
      </cc:License>
    </rdf:RDF>
  </metadata>
  <sodipodi:namedview
     pagecolor="#ffffff"
     bordercolor="#666666"
     borderopacity="1"
     objecttolerance="10"
     gridtolerance="10"
     guidetolerance="10"
     inkscape:pageopacity="0"
     inkscape:pageshadow="2"
     inkscape:window-width="1264"
     inkscape:window-height="767"
     id="namedview8"
     showgrid="false"
     inkscape:zoom="0.48436817"
     inkscape:cx="156.56784"
     inkscape:cy="593.55676"
     inkscape:window-x="0"
     inkscape:window-y="0"
     inkscape:window-maximized="0"
     inkscape:current-layer="layer2"
     inkscape:snap-bbox="false"
     inkscape:snap-page="true"
     showguides="true"
     inkscape:guide-bbox="true"
     inkscape:object-nodes="false"
     inkscape:snap-smooth-nodes="false"
     inkscape:snap-bbox-midpoints="false"
     inkscape:bbox-paths="false"
     inkscape:snap-nodes="true"
     inkscape:bbox-nodes="false"
     fit-margin-top="0"
     fit-margin-left="0"
     fit-margin-right="0"
     fit-margin-bottom="0">
    <sodipodi:guide
       orientation="1,0"
       position="156.57349,7.3607943e-05"
       id="guide3777" />
    <sodipodi:guide
       orientation="1,0"
       position="78.363488,7.3607943e-05"
       id="guide3781" />
  </sodipodi:namedview>
  <defs
     id="defs2514">
    <inkscape:path-effect
       effect="spiro"
       id="path-effect2987"
       is_visible="true" />
  </defs>
  <g
     inkscape:groupmode="layer"
     id="layer2"
     inkscape:label="Bottle and cap"
     style="display:inline"
     transform="translate(0.20848756,0.2229587)">
    <g
       id="g4041">
      <g
         id="g4036">
        <path
           inkscape:connector-curvature="0"
           style="fill:#ffffff;fill-opacity:1;fill-rule:evenodd;stroke:none"
           d="m 166.53125,-0.21875 c -7.40336,0.0352794 -14.79727,0.2690795 -22.1875,0.59375 -5.47496,0.240528 -10.94084,0.7282236 -16.375,1.40625 -5.43416,0.6780264 -10.85758,1.5449315 -16.25,2.53125 -3.91679,0.7514747 -8.06501,0.9439957 -12.09375,1.5625 -2.01437,0.3092522 -4.009576,0.7300096 -5.90625,1.375 -1.896674,0.6449904 -3.693147,1.5232842 -5.375,2.75 -1.189734,0.892278 -2.16112,1.976859 -2.9375,3.1875 -0.77638,1.210641 -1.35779,2.538716 -1.84375,3.9375 -0.971919,2.797568 -1.514667,5.856173 -2.0625,8.625 -0.170963,1.733888 -0.499598,3.435551 -0.90625,5.125 -0.406652,1.689449 -0.86184,3.351537 -1.3125,5.03125 -0.45066,1.679713 -0.884515,3.357819 -1.1875,5.0625 -0.302985,1.704681 -0.473872,3.454399 -0.4375,5.21875 0.134311,0.757614 0.350329,1.388131 0.65625,1.9375 0.305921,0.549369 0.685054,1.014537 1.125,1.375 0.439946,0.360463 0.932363,0.621604 1.46875,0.8125 0.536387,0.190896 1.123506,0.303081 1.71875,0.34375 1.190488,0.08134 2.45584,-0.127718 3.65625,-0.53125 1.20041,-0.403532 2.340342,-1.016314 3.25,-1.75 1.145636,1.006277 2.415894,1.767276 3.75,2.28125 1.334106,0.513974 2.737247,0.786864 4.15625,0.84375 1.419003,0.05689 2.84967,-0.103764 4.25,-0.46875 1.40033,-0.364986 2.75317,-0.935856 4.03125,-1.6875 0.68826,-0.388435 1.34606,-0.600725 2,-0.6875 0.65394,-0.08678 1.30691,-0.03429 1.9375,0.09375 1.26118,0.256085 2.48513,0.843197 3.71875,1.4375 1.23362,0.594303 2.4874,1.199715 3.78125,1.4375 0.64692,0.118893 1.29031,0.13175 1.96875,0.03125 0.67844,-0.1005 1.37283,-0.312016 2.09375,-0.71875 1.19193,-0.449166 2.41645,-0.881033 3.65625,-1.21875 1.2398,-0.337717 2.493,-0.60005 3.75,-0.71875 1.257,-0.1187 2.53772,-0.08288 3.78125,0.125 1.24353,0.207885 2.45684,0.607962 3.65625,1.25 0.70793,0.509923 1.42526,0.828701 2.15625,1.03125 0.73099,0.202549 1.47253,0.266692 2.21875,0.25 1.49244,-0.03338 3.02476,-0.399704 4.53125,-0.78125 1.50649,-0.381546 2.97949,-0.756608 4.4375,-0.78125 0.729,-0.01232 1.45109,0.04089 2.15625,0.25 0.70516,0.209105 1.42025,0.575086 2.09375,1.09375 1.52293,0.695118 3.00834,1.052548 4.5,1.15625 1.49166,0.103702 2.98796,-0.06385 4.4375,-0.375 1.44954,-0.311152 2.85344,-0.794307 4.25,-1.34375 1.39656,-0.549443 2.76101,-1.170079 4.09375,-1.78125 1.3362,0.162931 2.68851,0.697841 4.03125,1.3125 1.34274,0.614659 2.69178,1.306341 4.03125,1.875 1.33947,0.568659 2.67361,1.006321 4,1.03125 0.66319,0.01246 1.31067,-0.06446 1.96875,-0.28125 0.65808,-0.216792 1.31701,-0.585485 1.96875,-1.09375 0.53543,-0.655175 1.08972,-1.169466 1.65625,-1.5625 0.56653,-0.393034 1.15778,-0.666232 1.75,-0.84375 1.18444,-0.355037 2.4015,-0.321025 3.65625,-0.09375 2.5095,0.454551 5.12507,1.704204 7.65625,2.25 1.39269,-0.453517 2.75436,-0.783954 4.09375,-1 1.33939,-0.216046 2.65223,-0.307481 3.96875,-0.28125 1.31652,0.02623 2.64466,0.164185 3.96875,0.4375 1.32409,0.273315 2.63791,0.662294 4,1.1875 2.84963,-0.942393 6.11545,-1.496205 9.1875,-2.375 1.53602,-0.439398 3.03598,-0.935894 4.40625,-1.625 1.37027,-0.689106 2.59932,-1.571613 3.65625,-2.6875 0.23006,-1.887573 0.19296,-3.764607 -0.0625,-5.625 -0.25546,-1.860393 -0.72416,-3.704623 -1.28125,-5.53125 -1.11419,-3.653254 -2.62641,-7.208825 -3.84375,-10.6875 -1.25082,-2.891231 -1.88049,-6.308599 -2.96875,-9.40625 -0.54413,-1.548825 -1.20281,-3.025548 -2.125,-4.3125 C 224.19515,9.1377739 223.67045,8.538823 223.0625,8 c -0.60795,-0.538823 -1.30406,-1.0294533 -2.09375,-1.4375 -2.47938,-1.2575213 -5.0493,-2.2080579 -7.6875,-2.96875 -2.6382,-0.7606921 -5.33111,-1.3353095 -8.0625,-1.75 -2.73139,-0.4146905 -5.49104,-0.6867334 -8.25,-0.90625 -2.75896,-0.21951661 -5.52909,-0.35607971 -8.25,-0.53125 -7.38815,-0.47564275 -14.78414,-0.66027938 -22.1875,-0.625 z"
           id="path3932" />
        <path
           style="fill:#888;fill-opacity:1;stroke:none"
           d="m 97.067975,39.725689 c -1.766171,3.95482 2.112665,3.151561 0,0 z m 64.951585,-1.119856 c -1.76616,3.954815 2.11268,3.151571 0,0 z m -50.39346,-2.23971 c -1.76617,3.954815 2.11267,3.15157 0,0 z m -7.804,-3.219582 c -1.42487,4.454401 1.78273,4.372161 0,0 z m 1.08487,-5.739258 c -1.76619,3.954855 2.11266,3.151537 0,0 z m 78.42485,-0.979873 c -1.42487,4.454402 1.78271,4.372163 0,0 z m 34.96046,-2.274705 c -0.8601,2.724745 3.60017,8.849115 4.02448,5.389302 -4.45787,-2.198719 3.86474,-2.080286 -0.52493,-3.359565 -1.59709,0.399786 -2.46562,-1.233003 -3.49955,-2.029737 z m -39.24177,-8.316073 c 0.47952,0.32002 0.99692,0.672808 1.90505,1.522172 0.45795,3.347323 1.64658,8.534916 1.5652,2.037306 -0.26981,-1.190832 -0.34984,-2.458656 -1.25387,-3.383311 -1.40218,-1.779939 -2.53886,-2.196203 -3.9543,-2.393728 -6.83778,0.469774 -4.06981,9.10441 -3.78001,13.653414 1.06551,5.404491 1.42656,10.993859 3.04618,16.260494 1.32104,-4.432948 0.0701,-11.63186 -0.51107,-15.808608 -0.44965,-4.339233 -1.80373,-8.33837 -0.40824,-11.011512 0.42482,-0.813789 2.44595,-1.506968 3.39106,-0.876227 z m -68.54427,0.05714 c -4.53455,-0.23919 -7.65731,9.439993 -2.7731,10.00549 0.40119,1.81068 3.87752,4.477209 4.59287,3.362778 1.12361,-3.699804 2.76411,-11.691412 -1.81977,-13.368268 z m 13.01832,-0.769901 c -5.23629,2.419333 -2.52111,10.054517 -3.20995,14.824807 -0.12658,2.545153 0.22275,12.33983 1.31687,4.821972 -1.72903,-6.484471 7.44527,-5.92932 6.14038,-11.99679 -0.0253,-2.828998 -0.5874,-7.548544 -4.2473,-7.649989 z m 15.67797,-0.944877 c -3.97608,0.462694 1.38094,9.081657 -3.58369,4.419664 -2.12322,0.957059 -0.74817,5.359566 1.88574,4.900554 2.32781,4.877961 0.54179,12.44643 1.11303,16.218994 0.25645,-3.977698 2.87716,-9.410201 5.29676,-5.026643 1.19956,-5.655365 1.08946,-11.763339 0.007,-17.439802 -0.75513,-1.78897 -2.80793,-3.036636 -4.7198,-3.072767 z m 19.59746,-0.279964 c -7.91925,-0.324784 -6.08944,8.326906 -5.53133,13.459082 1.55865,4.660632 -1.91644,13.107811 2.88907,15.272824 2.26295,-4.885906 -0.21382,-11.098618 0.38011,-16.504011 -0.39891,-2.367681 0.9296,-10.332178 2.29714,-4.073951 0.25346,2.415756 1.92969,6.493409 1.42792,1.381322 -1.54408,-2.888103 3.28521,-9.495426 -1.46291,-9.535266 z m 33.07072,-0.06999 c -4.71214,2.847358 -0.27324,9.997905 2.5e-4,14.481504 1.44067,5.260119 2.45788,10.758475 4.72009,15.711304 1.05596,-5.14322 -1.90442,-10.741348 -2.60507,-15.99908 -0.34926,-2.290972 -3.90461,-12.758396 0.6027,-8.536885 1.27336,7.222587 2.88266,14.536141 5.66923,21.396486 4.53343,3.827864 1.23292,-8.063812 0.1615,-10.752009 -1.64366,-5.623888 -1.48179,-13.217957 -7.48368,-16.196169 z m 24.46183,-0.244922 c -3.78321,2.28643 3.93839,13.820963 3.7795,5.879239 -0.52076,-2.137724 -1.23921,-5.367625 -3.7795,-5.879239 z m -11.79347,0 c -3.3746,4.702243 1.21789,12.101384 1.85476,17.637716 0.99432,2.803418 1.62906,7.555974 3.33992,9.055386 -0.14835,-4.37378 -2.27756,-8.678223 -1.64896,-13.016818 3.40705,1.06131 2.16732,10.610174 5.91425,10.403005 -3.46205,-7.245407 -3.51104,-15.679538 -7.1868,-22.821333 -0.48545,-0.756338 -1.354,-1.305366 -2.27317,-1.257956 z m 25.19674,9.903721 C 227.23416,17.705376 227.29074,9.838191 220.97318,6.5738171 211.05565,1.5437319 199.60513,1.0915907 188.72147,0.39090953 173.94518,-0.56037597 159.1101,-0.26828618 144.32964,0.38105481 133.37972,0.86211081 122.51047,2.3473701 111.72563,4.320007 103.89206,5.8229565 95.057589,5.0920675 88.330175,9.9989305 83.571239,13.568042 82.610863,20.204933 81.515197,25.742587 c -0.683851,6.93555 -4.019947,13.376778 -3.874457,20.434182 1.074489,6.060914 8.241834,5.148541 11.880467,2.213797 4.582545,4.02511 11.087143,3.970935 16.199443,0.964359 5.50609,-3.107481 9.73833,4.827624 15.50573,1.573748 4.76773,-1.796664 10.04103,-3.132006 14.83866,-0.563854 5.66347,4.079386 12.18968,-3.087334 17.57765,1.061979 6.09172,2.780471 11.9767,0.123363 17.30764,-2.321323 5.34481,0.651723 10.7812,6.90819 15.99515,2.842071 4.28346,-5.241396 9.64854,-1.34829 14.71089,-0.256698 5.57076,-1.814069 10.59337,-1.747598 16.04172,0.353225 5.69925,-1.884786 13.02396,-2.2258 17.25168,-6.689347 0.92026,-7.550292 -2.77929,-14.909486 -5.21396,-21.866835 z M 105.88683,9.1746444 c 10.91837,-1.6974146 21.84344,-3.571596 32.86362,-4.4638249 19.78653,-0.8624047 39.69966,-1.0479781 59.41944,0.9992736 7.81344,1.4141954 16.14732,2.280251 23.06202,6.4391669 4.6573,7.431254 5.98981,16.383586 9.1648,24.481371 2.61954,4.703832 0.4605,9.767932 -5.23162,9.576625 -5.06079,2.82947 -9.96525,2.497022 -14.88514,-0.0091 -5.18951,-0.580842 -10.22336,5.211279 -14.69092,-0.05624 -4.76418,-4.357958 -8.56474,4.617798 -13.61369,3.326856 -5.34302,-3.324812 -12.70191,-5.699089 -18.34723,-1.682007 -5.69447,3.107578 -10.33075,-3.819741 -16.25386,-1.378328 -6.05167,3.556699 -11.02759,-1.397543 -17.20463,-1.144035 -5.70223,-1.439199 -14.57746,7.10948 -17.31873,-1.01041 -0.55205,-5.380122 -3.96629,2.807166 -7.44481,0.715857 -3.9891,1.780539 -9.796807,6.054005 -13.662475,0.980048 1.015002,-3.897264 0.0089,-11.270775 3.969965,-13.242042 1.424543,1.91987 1.006787,6.836388 2.421932,1.461578 1.173258,-5.470085 2.333298,-11.559946 0.0475,-16.871784 -5.485873,-4.121076 -4.964166,7.361538 -6.30937,10.569964 -1.426942,5.932843 -1.640286,12.350024 -4.455915,17.831578 -3.696226,3.351836 -8.158956,0.507384 -5.957741,-4.223839 0.897229,-6.738175 3.965296,-12.931608 4.938316,-19.680792 0.868144,-4.734628 3.405479,-10.282731 8.908839,-10.57659 3.526571,-0.681108 7.053139,-1.3622146 10.579739,-2.0433239 z"
           id="path2991"
           inkscape:connector-curvature="0"
           sodipodi:nodetypes="ccccccccccccccccscccccccsscccccccccccccccccccccccccccccccccccccccccccccssccccccccccccccccccccccccccccccccccccccccc" />
      </g>
      <path
         sodipodi:nodetypes="sssscsssassscssssss"
         inkscape:connector-curvature="0"
         id="path3828"
         d="m 91.3125,42.40625 c -13.143992,4.475811 -13.159162,49.089294 -5,55.65625 3.809503,3.0661 2.921895,4.83047 1.78125,15.21875 -5.027538,45.7877 -11.610141,115.41957 -14.8125,179 C 69.516143,367.03458 78.8344,419.0651 54.9375,462.6875 33.456854,489.98612 0.09634,513.6348 0,552.34375 c -0.469097,188.47949 0,376.95749 0,565.43745 0,16.1262 20.766625,41.1326 51.40625,52.7314 30.63963,11.5989 69.54913,16.3877 104.95875,16.3779 35.41943,-0.01 74.34307,-4.843 104.97875,-16.4404 30.63567,-11.5973 51.375,-36.6073 51.375,-52.7313 0,-188.45574 0.46903,-376.91987 0,-565.37505 -0.0963,-38.70396 -33.42837,-62.32991 -54.90625,-89.625 -23.89381,-43.61678 -14.57913,-95.66257 -18.34375,-170.40625 -3.20194,-63.57223 -9.78561,-133.18696 -14.8125,-178.96875 -1.1405,-10.38694 -2.02776,-12.15304 1.78125,-15.21875 8.15811,-6.566109 8.14229,-51.181016 -5,-55.65625 -14.2262,-4.844323 -44.24594,-4.286238 -65.06385,-4.317478 -20.8179,-0.03124 -50.83312,-0.58997 -65.06115,4.254978 z"
         style="fill:#bbb;fill-opacity:1;stroke:none;display:inline" />
    </g>
  </g>
</svg>
