<?xml version="1.0" standalone="no"?>
<!DOCTYPE svg PUBLIC "-//W3C//DTD SVG 20010904//EN"
 "http://www.w3.org/TR/2001/REC-SVG-20010904/DTD/svg10.dtd">
<svg version="1.0" xmlns="http://www.w3.org/2000/svg"
 width="350.000000pt" height="350.000000pt" viewBox="0 0 350.000000 350.000000"
 preserveAspectRatio="xMidYMid meet">
<metadata>
Created by potrace 1.10, written by Peter Selinger 2001-2011
</metadata>
<g transform="translate(0.000000,350.000000) scale(0.100000,-0.100000)"
fill="#bbb" stroke="none">
<path d="M425 3449 c-128 -19 -265 -111 -314 -212 -46 -95 -46 -179 -1 -299
23 -63 40 -87 120 -173 31 -33 128 -136 215 -230 87 -93 213 -228 280 -300 66
-71 152 -164 190 -205 38 -41 75 -79 81 -85 6 -5 38 -39 70 -75 33 -36 201
-219 374 -405 668 -720 720 -776 907 -985 149 -166 268 -280 334 -323 141 -90
295 -123 429 -93 130 29 238 111 301 229 28 53 34 74 37 148 7 143 -34 250
-141 367 -65 72 -1082 1131 -1561 1627 -383 396 -507 524 -676 704 -165 175
-233 229 -340 270 -61 24 -210 55 -238 50 -4 -1 -34 -5 -67 -10z m391 -210
c68 -42 161 -173 152 -215 -2 -10 -29 -28 -68 -43 -89 -37 -229 -122 -313
-193 -38 -32 -75 -58 -81 -58 -6 0 -39 13 -73 30 -68 31 -150 102 -184 157
-19 30 -20 37 -8 49 26 25 503 294 523 294 10 0 34 -9 52 -21z m2120 -2340
c141 -25 299 -141 358 -261 107 -218 12 -418 -216 -459 -194 -35 -405 76 -495
259 -32 64 -39 88 -42 153 -6 137 44 230 148 276 93 41 153 49 247 32z"/>
</g>
</svg>
