<?xml version="1.0" standalone="no"?>
<!DOCTYPE svg PUBLIC "-//W3C//DTD SVG 20010904//EN"
 "http://www.w3.org/TR/2001/REC-SVG-20010904/DTD/svg10.dtd">
<svg version="1.0" xmlns="http://www.w3.org/2000/svg"
 width="523.000000pt" height="466.000000pt" viewBox="0 0 523.000000 466.000000"
 preserveAspectRatio="xMidYMid meet">
<metadata>
Created by potrace 1.10, written by Peter Selinger 2001-2011
</metadata>
<g transform="translate(0.000000,466.000000) scale(0.100000,-0.100000)"
fill="#000000" stroke="none">
<path d="M3955 4632 c-73 -41 -230 -137 -235 -143 -3 -3 -10 -8 -16 -10 -6 -2
-24 -14 -40 -26 -70 -54 -155 -113 -163 -113 -5 0 -11 -3 -13 -8 -1 -4 -32
-29 -68 -55 -36 -26 -70 -51 -75 -55 -6 -5 -39 -29 -75 -55 -36 -25 -69 -50
-75 -54 -5 -5 -55 -42 -110 -83 -55 -41 -104 -78 -110 -83 -5 -4 -37 -29 -71
-55 -33 -26 -73 -56 -88 -67 -24 -18 -44 -33 -81 -63 -9 -7 -74 -57 -273 -209
-76 -58 -115 -89 -153 -123 -19 -16 -37 -30 -41 -30 -4 0 -13 -6 -20 -13 -7
-7 -33 -28 -58 -47 -25 -19 -50 -39 -56 -45 -6 -5 -35 -28 -64 -50 -29 -22
-71 -59 -95 -82 -23 -24 -50 -43 -59 -43 -9 0 -24 -4 -34 -9 -9 -5 -57 -23
-107 -41 -49 -17 -97 -35 -105 -39 -9 -5 -30 -12 -48 -15 -17 -4 -34 -12 -37
-17 -4 -5 -14 -9 -23 -9 -9 0 -30 -7 -46 -15 -15 -8 -32 -15 -37 -15 -5 0 -32
-11 -61 -24 -29 -14 -109 -48 -178 -76 -69 -29 -159 -68 -200 -87 -108 -50
-364 -177 -370 -183 -3 -3 -19 -12 -35 -21 -83 -45 -100 -55 -105 -60 -3 -4
-23 -17 -45 -28 -49 -27 -78 -44 -85 -51 -3 -3 -27 -21 -55 -40 -27 -19 -55
-39 -61 -45 -6 -5 -33 -28 -59 -50 -90 -74 -185 -188 -185 -222 0 -6 -6 -13
-12 -15 -9 -3 -13 -32 -13 -99 0 -77 4 -99 20 -124 35 -52 87 -104 137 -136
60 -39 64 -14 -53 -265 -19 -40 -19 -46 -4 -170 8 -71 15 -149 16 -174 1 -40
2 -42 8 -15 4 17 3 88 -2 158 -9 116 -8 131 9 165 11 20 21 39 24 42 7 7 45
76 77 138 14 28 30 52 35 52 5 0 25 -10 46 -23 20 -13 45 -26 55 -30 16 -6 17
-35 17 -414 0 -418 8 -494 30 -268 26 278 41 445 47 518 3 53 9 77 18 77 8 0
15 -17 18 -42 7 -63 26 -178 36 -218 5 -19 17 -80 26 -135 9 -55 20 -113 25
-130 5 -16 11 -58 15 -93 10 -93 27 -90 22 4 -19 335 -29 575 -24 581 4 3 31
-6 62 -21 31 -14 60 -26 65 -26 6 0 18 -4 28 -10 9 -5 33 -15 52 -23 19 -8 48
-19 63 -26 16 -6 57 -20 90 -32 34 -11 71 -24 82 -29 11 -4 47 -16 80 -25 33
-10 78 -23 100 -30 80 -25 111 -33 145 -40 19 -3 44 -10 55 -14 26 -11 145
-36 270 -56 55 -9 120 -20 145 -25 25 -5 87 -12 139 -15 l95 -7 35 -41 c71
-82 200 -201 239 -219 12 -6 22 -15 22 -20 0 -4 5 -8 12 -8 6 0 19 -6 27 -13
9 -7 36 -21 61 -31 25 -10 54 -23 65 -29 11 -6 65 -11 120 -12 93 -1 103 -3
145 -31 25 -16 50 -33 57 -39 28 -23 40 -32 73 -55 19 -13 37 -27 40 -30 3 -3
23 -18 45 -35 58 -43 225 -214 225 -231 0 -8 4 -14 8 -14 13 0 44 -79 50 -125
4 -37 -5 -70 -35 -127 -2 -5 84 -8 191 -8 l196 0 0 45 c0 25 4 45 8 45 5 0 19
-20 31 -45 l22 -45 185 0 184 0 0 118 c0 64 -5 154 -11 199 -7 45 -9 89 -5 98
5 15 9 15 38 -3 18 -10 58 -32 88 -48 30 -16 61 -35 68 -41 7 -7 20 -13 28
-13 8 0 14 -4 14 -10 0 -5 5 -10 11 -10 11 0 263 -153 377 -230 56 -36 69 -41
105 -37 68 8 180 27 207 36 14 5 54 17 90 26 36 10 77 23 93 29 l27 11 0 1022
0 1022 -37 26 c-21 14 -43 25 -49 25 -7 0 -14 3 -16 8 -1 4 -19 15 -38 26 -19
10 -82 43 -139 73 -57 31 -118 63 -135 72 -17 9 -33 18 -36 21 -3 3 -39 21
-80 40 -41 19 -77 38 -80 42 -3 3 -18 10 -33 13 -15 4 -27 11 -27 16 0 5 -4 9
-10 9 -5 0 -61 25 -125 55 -63 30 -117 55 -119 55 -3 0 -35 14 -73 31 -37 16
-79 35 -93 41 -35 14 -79 33 -122 52 -20 9 -42 16 -50 16 -8 0 -18 4 -23 8 -6
5 -77 30 -160 56 -82 26 -163 51 -180 57 -101 33 -464 11 -510 -32 -5 -5 -17
-9 -26 -9 -20 0 -89 -29 -179 -74 -117 -60 -133 -69 -174 -103 -8 -7 -18 -13
-21 -13 -3 0 -30 -18 -60 -40 -30 -22 -59 -40 -64 -40 -6 0 -14 -6 -18 -14
-12 -20 -53 -39 -103 -47 -25 -4 -88 -15 -140 -24 -174 -29 -264 -44 -360 -59
-110 -16 -130 -23 -130 -42 0 -8 -4 -14 -10 -14 -5 0 -10 -6 -10 -14 0 -41
-115 -116 -177 -116 -33 0 -94 29 -124 60 -56 56 -57 174 -1 229 51 50 84 65
143 66 83 0 131 -28 164 -99 15 -31 22 -36 39 -31 12 4 46 12 76 19 30 7 62
15 70 18 8 4 40 11 70 18 30 6 71 15 90 20 19 5 58 14 85 20 28 6 57 14 65 17
24 10 131 34 179 40 l43 5 -5 42 c-3 22 -9 58 -13 78 l-7 38 59 26 c33 14 73
32 89 39 60 27 141 63 190 84 28 12 59 26 70 31 11 5 43 18 70 29 44 17 96 39
202 87 17 8 34 14 37 14 6 0 114 47 138 60 10 6 23 10 29 10 6 0 27 7 47 16
21 9 52 22 70 30 18 8 39 14 47 14 8 0 15 4 15 9 0 5 18 12 40 16 22 4 40 10
40 15 0 4 10 10 23 13 45 12 197 184 197 223 0 7 3 14 8 16 13 6 84 161 127
278 15 41 31 82 35 91 5 9 12 34 16 55 3 22 10 44 14 49 4 6 11 26 14 45 4 19
11 44 15 55 5 11 16 49 26 85 9 36 21 81 26 100 5 19 14 55 19 80 5 25 16 77
24 115 31 137 31 131 5 138 -51 14 -193 7 -224 -11z"/>
<path d="M2473 4498 c-6 -7 -66 -103 -133 -213 -68 -110 -135 -218 -150 -240
-15 -22 -69 -107 -120 -190 -51 -82 -101 -162 -111 -177 -11 -15 -19 -31 -19
-37 0 -5 -4 -11 -8 -13 -5 -1 -67 -97 -137 -213 -71 -115 -132 -212 -135 -215
-7 -7 -29 -42 -37 -60 -4 -8 -9 -17 -12 -20 -12 -10 -44 -80 -39 -85 4 -4 118
62 128 75 3 4 55 39 115 78 61 39 115 76 122 81 7 6 17 11 23 11 6 0 13 6 16
14 3 8 13 17 22 20 16 5 41 20 66 39 6 4 54 36 106 70 52 34 97 65 98 70 2 4
8 7 13 7 6 0 30 15 54 33 37 28 45 40 59 94 9 34 16 73 16 86 0 13 3 27 8 31
4 4 12 38 19 74 6 37 19 103 27 147 35 173 55 330 55 428 1 98 -18 140 -46
105z"/>
</g>
</svg>
