<?xml version="1.0" standalone="no"?>
<!DOCTYPE svg PUBLIC "-//W3C//DTD SVG 20010904//EN"
 "http://www.w3.org/TR/2001/REC-SVG-20010904/DTD/svg10.dtd">
<svg version="1.0" xmlns="http://www.w3.org/2000/svg"
 width="608.000000pt" height="480.000000pt" viewBox="0 0 608.000000 480.000000"
 preserveAspectRatio="xMidYMid meet">
<metadata>
Created by potrace 1.10, written by Peter Selinger 2001-2011
</metadata>
<g transform="translate(0.000000,480.000000) scale(0.100000,-0.100000)"
fill="#000000" stroke="none">
<path d="M3365 4780 c-3 -5 -13 -10 -22 -10 -19 0 -72 -56 -78 -84 -2 -11 -9
-109 -15 -218 -23 -436 -7 -684 51 -801 10 -22 19 -45 19 -53 0 -8 5 -14 10
-14 6 0 10 -9 10 -20 0 -11 4 -20 9 -20 5 0 11 -8 14 -17 6 -19 36 -70 52 -89
6 -7 37 -51 70 -99 33 -48 70 -99 83 -113 13 -15 37 -47 55 -72 17 -25 39 -54
49 -65 11 -11 30 -56 43 -100 29 -93 32 -203 15 -415 -34 -405 -36 -409 -157
-440 -24 -6 -43 -15 -43 -20 0 -6 -9 -10 -19 -10 -11 0 -21 -3 -23 -7 -1 -5
-25 -25 -53 -46 -27 -21 -70 -57 -95 -81 -75 -71 -116 -83 -163 -46 -14 11
-30 20 -36 20 -6 0 -11 4 -11 8 0 5 -33 23 -72 41 -40 18 -81 37 -90 42 -10 5
-29 9 -43 9 -14 0 -25 4 -25 9 0 5 -15 11 -32 14 -18 3 -55 11 -83 17 -201 44
-333 55 -497 40 -142 -12 -230 -23 -318 -39 -30 -5 -76 -13 -102 -17 -27 -3
-48 -11 -48 -15 0 -5 -10 -9 -22 -9 -23 0 -81 -16 -110 -31 -10 -5 -27 -9 -38
-9 -11 0 -20 -4 -20 -10 0 -5 -9 -10 -20 -10 -11 0 -20 -4 -20 -10 0 -5 -9
-10 -19 -10 -11 0 -21 -3 -23 -8 -1 -4 -43 -34 -93 -66 -49 -33 -97 -67 -106
-78 -9 -10 -21 -18 -26 -18 -6 0 -23 -12 -39 -28 -16 -15 -45 -38 -64 -52 -19
-13 -39 -29 -45 -35 -5 -6 -44 -40 -85 -76 -126 -109 -335 -322 -410 -419 -19
-25 -38 -46 -42 -48 -5 -2 -8 -10 -8 -18 0 -8 -3 -14 -7 -14 -9 0 -33 -49 -33
-67 0 -7 -4 -13 -10 -13 -5 0 -10 -11 -10 -24 0 -14 -4 -27 -9 -30 -5 -3 -11
-20 -14 -38 -3 -18 -10 -53 -17 -78 -15 -59 -29 -138 -40 -225 -4 -38 -13
-113 -19 -165 -6 -52 -12 -178 -14 -280 l-2 -185 2316 -3 2317 -2 6 22 c3 13
9 72 13 131 3 59 10 110 15 113 4 3 8 14 8 25 0 11 14 47 31 81 39 77 60 201
62 363 2 114 1 123 -27 178 -16 31 -32 57 -36 57 -4 0 -13 14 -20 30 -7 17
-16 30 -21 30 -5 0 -9 23 -9 50 0 98 58 149 185 162 39 4 97 12 130 18 33 6
78 13 100 16 22 4 44 10 49 15 6 5 22 9 37 9 15 0 31 4 34 10 3 5 14 10 25 10
54 0 144 77 233 201 73 102 113 154 119 157 5 2 8 9 8 15 0 7 9 23 20 37 15
19 20 41 20 93 0 37 -4 75 -9 85 -5 9 -15 31 -22 47 -8 17 -16 32 -19 35 -3 3
-11 17 -19 32 -8 16 -20 28 -28 28 -7 0 -13 3 -13 8 0 4 -14 16 -31 27 -35 23
-89 95 -89 119 0 9 -4 16 -8 16 -5 0 -15 22 -22 50 -7 27 -17 50 -22 50 -4 0
-8 7 -8 15 0 26 -51 106 -130 205 -11 14 -20 30 -20 37 0 6 -3 13 -7 15 -10 4
-73 107 -73 119 0 5 -4 9 -9 9 -5 0 -14 14 -21 30 -7 17 -16 30 -21 30 -4 0
-10 8 -13 18 -7 22 -82 101 -121 127 -36 24 -60 36 -157 74 -13 5 -43 14 -68
21 -25 6 -59 16 -76 21 -17 5 -62 9 -100 9 -74 1 -96 11 -108 50 -4 14 -12 99
-17 190 -12 209 -19 273 -30 285 -5 5 -9 24 -9 41 0 18 -4 36 -10 39 -5 3 -10
16 -10 27 0 23 -17 81 -31 110 -5 10 -9 28 -9 41 0 13 -4 27 -9 33 -5 5 -19
41 -31 79 -12 39 -29 86 -37 105 -8 19 -20 46 -25 60 -6 14 -14 33 -19 42 -5
10 -9 23 -9 28 0 6 -9 30 -20 52 -11 23 -20 48 -20 55 0 7 -4 13 -10 13 -5 0
-10 6 -10 14 0 8 -13 40 -30 71 -16 31 -30 63 -30 71 0 8 -4 14 -8 14 -5 0
-16 17 -26 38 -31 66 -80 131 -109 143 -30 12 -105 8 -169 -11 -78 -23 -108
-86 -108 -233 0 -72 -4 -102 -14 -113 -20 -20 -33 -18 -60 9 -31 31 -96 124
-96 137 0 5 -4 10 -10 10 -5 0 -10 5 -10 11 0 19 -77 124 -137 185 -37 38 -80
70 -118 88 -33 15 -68 32 -77 37 -24 12 -175 12 -183 -1z"/>
</g>
</svg>
