<?xml version="1.0" standalone="no"?>
<!DOCTYPE svg PUBLIC "-//W3C//DTD SVG 20010904//EN"
 "http://www.w3.org/TR/2001/REC-SVG-20010904/DTD/svg10.dtd">
<svg version="1.0" xmlns="http://www.w3.org/2000/svg"
 viewBox="0 0 646.000000 307.000000"
 preserveAspectRatio="xMidYMid meet">
<metadata>
Created by potrace 1.10, written by Peter Selinger 2001-2011
</metadata>
<g transform="translate(0.000000,307.000000) scale(0.100000,-0.100000)"
class="rabbit">
<path d="M2698 2747 c-57 -39 -124 -77 -136 -77 -6 0 -16 16 -22 35 -13 40
-41 59 -73 49 -38 -11 -156 -114 -216 -188 -115 -142 -149 -194 -161 -250 -8
-39 -23 -67 -57 -107 -25 -30 -63 -81 -84 -115 l-39 -61 -63 -7 c-117 -13
-123 -17 -252 -149 -222 -228 -245 -263 -245 -369 1 -106 49 -178 121 -178 11
0 34 -10 49 -22 15 -13 36 -28 46 -34 18 -11 18 -15 -12 -75 -41 -82 -41 -83
-59 -194 -8 -51 -20 -105 -26 -119 -14 -31 -76 -62 -152 -78 -49 -11 -61 -10
-94 6 -49 24 -265 34 -373 17 -95 -15 -227 -58 -251 -82 -24 -24 -24 -70 -1
-98 14 -17 30 -21 102 -23 95 -3 93 -6 -35 -37 -59 -14 -139 -46 -235 -92 -80
-39 -176 -82 -213 -94 -103 -35 -117 -47 -117 -99 0 -54 25 -88 78 -104 86
-26 148 -11 357 83 78 35 159 66 180 70 22 3 90 17 150 30 61 14 153 29 205
34 52 5 115 16 140 24 25 8 75 20 111 26 60 10 71 9 115 -10 34 -15 77 -23
141 -27 116 -6 181 14 227 72 l31 38 85 -6 c47 -3 119 -10 160 -16 252 -32
285 -31 465 13 55 14 152 32 215 42 126 18 195 34 310 69 184 57 224 67 372
91 87 14 193 37 235 51 141 46 276 43 436 -12 101 -34 193 -88 263 -153 126
-118 281 -167 451 -142 49 7 117 15 152 18 l64 5 81 -86 c78 -83 83 -87 138
-96 31 -5 71 -17 90 -26 38 -20 156 -28 176 -12 38 32 -8 117 -104 189 -33 25
-60 51 -62 60 -4 21 107 79 165 86 45 5 57 1 173 -61 69 -36 163 -93 210 -126
82 -58 87 -60 146 -60 40 0 77 -7 105 -20 75 -33 171 -22 185 22 20 64 -24
119 -128 159 -31 11 -74 37 -95 57 -73 67 -213 172 -310 232 -98 60 -98 60
-175 60 -60 0 -99 -7 -168 -30 -130 -43 -165 -41 -294 21 l-107 51 -36 71
c-43 86 -63 157 -57 200 3 18 -1 70 -9 117 -15 83 -16 86 -69 133 -80 74 -119
90 -251 104 -56 6 -67 -2 -82 -54 -15 -55 -35 -62 -84 -30 -26 18 -65 31 -113
38 -40 6 -80 15 -89 20 -32 16 -205 57 -314 74 -60 9 -179 28 -264 42 -188 31
-259 28 -511 -23 l-175 -36 -205 5 c-220 6 -280 17 -335 61 -28 22 -30 29 -36
114 -5 79 -10 97 -38 138 -38 58 -35 74 29 135 35 33 61 73 95 145 26 54 56
110 65 124 10 14 35 68 56 120 20 52 46 107 56 122 10 14 18 31 18 36 0 6 20
41 45 78 61 90 62 108 10 112 -30 2 -50 -3 -77 -21z"/>
</g>
</svg>
